<?xml version="1.0" encoding="UTF-8"?>
<!DOCTYPE svg PUBLIC "-//W3C//DTD SVG 1.1//EN" "http://www.w3.org/Graphics/SVG/1.1/DTD/svg11.dtd">
<!-- Creator: CorelDRAW 2018 (64 Bit Versão de avaliação) -->
<svg xmlns="http://www.w3.org/2000/svg" xml:space="preserve" width="300px" height="300px" version="1.1" shape-rendering="geometricPrecision" text-rendering="geometricPrecision" image-rendering="optimizeQuality" fill-rule="evenodd" clip-rule="evenodd"
viewBox="0 0 103.53 103.53"
 xmlns:xlink="http://www.w3.org/1999/xlink">
 <g id="Camada_x0020_1">
  <metadata id="CorelCorpID_0Corel-Layer"/>
  <g id="_2003079989024">
   <g>
    <path fill="black" fill-rule="nonzero" d="M31.74 51.83c-7.09,0 -12.86,5.77 -12.86,12.86 0,7.09 5.77,12.86 12.86,12.86 7.09,0 12.85,-5.77 12.85,-12.86 0,-7.09 -5.76,-12.86 -12.85,-12.86zm0 2.25c4.96,0 9.13,3.42 10.29,8.02 -0.55,2.22 -1.83,4.23 -3.62,5.67 -1.88,1.53 -4.25,2.37 -6.67,2.37 -2.43,0 -4.8,-0.84 -6.68,-2.37 -1.78,-1.44 -3.06,-3.45 -3.62,-5.67 1.16,-4.6 5.34,-8.02 10.3,-8.02zm0 21.23c-5,0 -9.19,-3.47 -10.32,-8.12 0.64,0.86 1.39,1.64 2.23,2.33 2.28,1.84 5.15,2.86 8.09,2.86 2.93,0 5.8,-1.02 8.08,-2.86 0.84,-0.69 1.59,-1.47 2.23,-2.33 -1.12,4.65 -5.32,8.12 -10.31,8.12z"/>
    <path fill="black" fill-rule="nonzero" d="M88.36 58.41c0,-0.01 -0.21,-0.55 -0.3,-0.75l-9.55 -23.15c-1.18,-2.85 -3.3,-5.1 -5.91,-6.44l-0.9 -2.18c-0.58,-1.42 -1.56,-2.61 -2.84,-3.47 -1.27,-0.84 -2.75,-1.29 -4.28,-1.29 -4.24,0 -7.7,3.45 -7.7,7.69l0 2.59c-1.75,2.18 -2.8,4.94 -2.8,7.94l0 0.86 -4.63 0 0 -0.86c0,-3 -1.05,-5.76 -2.8,-7.94l0 -2.59c0,-4.24 -3.45,-7.69 -7.7,-7.69 -1.53,0 -3.01,0.45 -4.28,1.3 -1.27,0.85 -2.25,2.04 -2.84,3.46l-0.89 2.18c-2.62,1.34 -4.74,3.59 -5.92,6.44l-2.45 5.95c-0.23,0.57 0.04,1.22 0.61,1.46 0.57,0.24 1.23,-0.04 1.46,-0.61l2.46 -5.94c1.62,-3.93 5.41,-6.47 9.66,-6.47 5.76,0 10.45,4.69 10.45,10.45l0 16.72c-3.03,-5.42 -8.83,-9.1 -15.47,-9.1 -4.16,0 -7.99,1.45 -11.02,3.86l2.42 -5.87c0.23,-0.57 -0.04,-1.23 -0.61,-1.46 -0.57,-0.24 -1.23,0.04 -1.46,0.61l-5.6 13.55c-0.08,0.2 -0.32,0.8 -0.33,0.84 -0.72,1.93 -1.12,4.01 -1.12,6.19 0,9.77 7.95,17.72 17.72,17.72 9.77,0 17.71,-7.95 17.71,-17.72l0 -0.72 4.63 0 0 0.72c0,9.77 7.95,17.72 17.72,17.72 9.77,0 17.71,-7.95 17.71,-17.72 0,-2.21 -0.4,-4.33 -1.15,-6.28zm-51.6 -31.75c-1.01,0 -2.01,0.12 -2.96,0.35l0.11 -0.27c0.41,-1 1.11,-1.85 2.01,-2.45 0.9,-0.6 1.95,-0.92 3.03,-0.92 3.01,0 5.46,2.45 5.46,5.45l0 0.41c-2.13,-1.61 -4.78,-2.57 -7.65,-2.57zm27.82 -3.29c1.09,0 2.13,0.32 3.04,0.92 0.9,0.6 1.59,1.45 2.01,2.45l0.11 0.27c-0.96,-0.23 -1.95,-0.35 -2.97,-0.35 -2.87,0 -5.52,0.96 -7.65,2.57l0 -0.41c0,-3 2.45,-5.45 5.46,-5.45zm-8.26 15.98c0,-5.76 4.69,-10.45 10.45,-10.45 4.25,0 8.05,2.54 9.67,6.47l6.37 15.46c-3.02,-2.41 -6.85,-3.86 -11.01,-3.86 -6.65,0 -12.45,3.68 -15.48,9.1l0 -16.72zm-2.24 3.1l0 10.76 -4.63 0 0 -10.76 4.63 0zm-22.34 37.72c-8.54,0 -15.48,-6.95 -15.48,-15.48 0,-8.53 6.94,-15.47 15.48,-15.47 8.53,0 15.47,6.94 15.47,15.47 0,8.53 -6.94,15.48 -15.47,15.48zm17.71 -18.44l0 -6.28 4.63 0 0 6.28 -4.63 0zm22.35 18.44c-8.54,0 -15.48,-6.95 -15.48,-15.48 0,-8.53 6.94,-15.47 15.48,-15.47 8.53,0 15.47,6.94 15.47,15.47 0,8.53 -6.94,15.48 -15.47,15.48z"/>
    <path fill="black" fill-rule="nonzero" d="M80.5 56.74c-0.49,0.37 -0.59,1.08 -0.22,1.57 0.86,1.15 1.47,2.43 1.81,3.79 -0.55,2.21 -1.83,4.22 -3.62,5.67 -1.88,1.53 -4.25,2.37 -6.67,2.37 -2.43,0 -4.8,-0.84 -6.68,-2.37 -1.79,-1.44 -3.06,-3.45 -3.62,-5.66 1.16,-4.61 5.33,-8.03 10.3,-8.03 2.12,0 4.18,0.62 5.93,1.81 0.51,0.35 1.21,0.21 1.56,-0.3 0.34,-0.52 0.21,-1.21 -0.3,-1.56 -2.13,-1.44 -4.62,-2.2 -7.19,-2.2 -7.09,0 -12.86,5.77 -12.86,12.86 0,7.09 5.77,12.86 12.86,12.86 7.09,0 12.85,-5.77 12.85,-12.86 0,-2.81 -0.89,-5.48 -2.58,-7.73 -0.37,-0.49 -1.07,-0.59 -1.57,-0.22zm-8.7 18.57c-5,0 -9.19,-3.47 -10.32,-8.12 0.64,0.86 1.39,1.64 2.23,2.33 2.28,1.84 5.15,2.86 8.09,2.86 2.93,0 5.8,-1.02 8.08,-2.86 0.84,-0.69 1.59,-1.47 2.23,-2.33 -1.12,4.65 -5.32,8.12 -10.31,8.12z"/>
   </g>
   <rect fill="none" width="103.53" height="103.53"/>
  </g>
 </g>
</svg>
