<?xml version="1.0" encoding="UTF-8"?>
<!DOCTYPE svg PUBLIC "-//W3C//DTD SVG 1.1//EN" "http://www.w3.org/Graphics/SVG/1.1/DTD/svg11.dtd">
<!-- Creator: CorelDRAW 2018 (64 Bit Versão de avaliação) -->
<svg xmlns="http://www.w3.org/2000/svg" xml:space="preserve" width="300px" height="300px" version="1.1" shape-rendering="geometricPrecision" text-rendering="geometricPrecision" image-rendering="optimizeQuality" fill-rule="evenodd" clip-rule="evenodd"
viewBox="0 0 120 120"
 xmlns:xlink="http://www.w3.org/1999/xlink">
 <g id="Camada_x0020_1">
  <metadata id="CorelCorpID_0Corel-Layer"/>
  <g id="_2295480442752">
   <g>
    <path fill="black" fill-rule="nonzero" d="M37.54 47.62c-0.39,0 -0.77,0.15 -1.04,0.43 -0.28,0.27 -0.43,0.65 -0.43,1.04 0,0.39 0.15,0.77 0.43,1.04 0.27,0.28 0.65,0.43 1.04,0.43 0.39,0 0.77,-0.15 1.04,-0.43 0.28,-0.27 0.44,-0.65 0.44,-1.04 0,-0.39 -0.16,-0.77 -0.44,-1.04 -0.27,-0.28 -0.65,-0.43 -1.04,-0.43z"/>
    <path fill="black" fill-rule="nonzero" d="M31.81 39.71c-2.27,2.27 -5.14,3.75 -8.31,4.26 -0.81,0.13 -1.35,0.89 -1.22,1.69 0.12,0.73 0.74,1.24 1.45,1.24 0.08,0 0.16,0 0.24,-0.02 3.78,-0.61 7.22,-2.37 9.93,-5.08 0.64,-0.65 1.37,-1.19 2.17,-1.62l0 3.01c0,0.82 0.66,1.48 1.47,1.48 0.82,0 1.48,-0.66 1.48,-1.48l0 -11.19c0,0 0,-0.01 0,-0.01l0 -8.26c0,-0.81 -0.66,-1.47 -1.48,-1.47 -0.81,0 -1.47,0.66 -1.47,1.47l0 7.04c-3.19,0.8 -6.08,2.43 -8.43,4.77 -1.18,1.18 -2.66,2.03 -4.27,2.44 -0.79,0.2 -1.27,1.01 -1.06,1.79 0.17,0.67 0.77,1.11 1.42,1.11 0.12,0 0.25,-0.01 0.37,-0.04 2.13,-0.55 4.07,-1.66 5.63,-3.21 1.78,-1.79 3.95,-3.08 6.34,-3.8l0 3.11c-1.59,0.62 -3.05,1.56 -4.26,2.77z"/>
    <path fill="black" fill-rule="nonzero" d="M82.41 94.79c-0.39,0 -0.77,0.16 -1.05,0.43 -0.27,0.27 -0.43,0.66 -0.43,1.04 0,0.39 0.16,0.77 0.43,1.05 0.28,0.27 0.66,0.43 1.05,0.43 0.38,0 0.76,-0.16 1.04,-0.43 0.27,-0.28 0.43,-0.66 0.43,-1.05 0,-0.38 -0.16,-0.77 -0.43,-1.04 -0.28,-0.27 -0.66,-0.43 -1.04,-0.43z"/>
    <path fill="black" fill-rule="nonzero" d="M96.5 86.65c-3.17,-0.51 -6.04,-1.99 -8.31,-4.26 -1.23,-1.22 -2.7,-2.17 -4.31,-2.79l0 -3.11c2.41,0.72 4.59,2.02 6.39,3.82 1.55,1.55 3.5,2.66 5.63,3.21 0.12,0.03 0.24,0.05 0.36,0.05 0.66,0 1.26,-0.45 1.43,-1.11 0.2,-0.79 -0.27,-1.59 -1.06,-1.8 -1.62,-0.41 -3.1,-1.25 -4.27,-2.44 -2.36,-2.35 -5.27,-3.99 -8.48,-4.78l0 -5.51c3.11,-0.77 6.05,-2.37 8.47,-4.79 1.18,-1.18 2.66,-2.02 4.28,-2.44 0.79,-0.2 1.26,-1 1.06,-1.79 -0.2,-0.79 -1.01,-1.27 -1.79,-1.07 -2.13,0.55 -4.08,1.66 -5.63,3.21 -5.95,5.95 -15.62,5.95 -21.57,0 -1.22,-1.21 -2.68,-2.16 -4.28,-2.78l0 -3.11c2.4,0.72 4.58,2.02 6.36,3.81 2.4,2.4 5.55,3.6 8.7,3.6 3.16,0 6.31,-1.2 8.71,-3.6 2.27,-2.27 5.14,-3.74 8.31,-4.26 0.8,-0.13 1.35,-0.89 1.22,-1.69 -0.13,-0.81 -0.89,-1.35 -1.69,-1.22 -3.79,0.62 -7.22,2.37 -9.93,5.08 -0.67,0.68 -1.42,1.22 -2.22,1.65l0 -18.37c0.81,0.43 1.56,0.98 2.22,1.64 2.71,2.71 6.14,4.47 9.93,5.08 0.08,0.01 0.16,0.02 0.23,0.02 0.71,0 1.34,-0.51 1.46,-1.24 0.13,-0.8 -0.42,-1.56 -1.22,-1.69 -3.17,-0.51 -6.05,-1.99 -8.32,-4.26 -1.22,-1.22 -2.69,-2.17 -4.3,-2.79l0 -3.11c2.41,0.72 4.59,2.02 6.39,3.82 1.55,1.55 3.5,2.66 5.63,3.21 0.12,0.03 0.24,0.04 0.36,0.04 0.66,0 1.26,-0.44 1.43,-1.11 0.2,-0.78 -0.27,-1.59 -1.06,-1.79 -1.62,-0.41 -3.1,-1.26 -4.28,-2.44 -2.35,-2.35 -5.26,-3.99 -8.47,-4.78l0 -7.03c0,-0.81 -0.66,-1.47 -1.47,-1.47 -0.82,0 -1.48,0.66 -1.48,1.47l0 35.78c-0.98,0.15 -1.97,0.14 -2.95,-0.01l0 -27.47c0.01,-0.04 0,-0.09 0,-0.14l0 -8.16c0,-0.81 -0.66,-1.47 -1.47,-1.47 -0.82,0 -1.48,0.66 -1.48,1.47l0 7.04c-3.18,0.8 -6.07,2.43 -8.42,4.77 -0.65,0.66 -1.39,1.21 -2.19,1.64l0 -13.45c0,-0.81 -0.66,-1.47 -1.47,-1.47 -0.82,0 -1.48,0.66 -1.48,1.47l0 14.43c-0.48,0.08 -0.97,0.12 -1.47,0.12 -0.5,0 -0.99,-0.04 -1.48,-0.12l0 -14.43c0,-0.81 -0.66,-1.47 -1.47,-1.47 -0.81,0 -1.47,0.66 -1.47,1.47l0 13.45c-0.8,-0.43 -1.54,-0.98 -2.2,-1.64 -2.35,-2.35 -5.26,-3.99 -8.47,-4.78l0 -7.03c0,-0.81 -0.66,-1.47 -1.47,-1.47 -0.82,0 -1.48,0.66 -1.48,1.47l0 35.78c-0.97,0.15 -1.97,0.15 -2.94,-0.01l0 -4.51c0,-0.82 -0.66,-1.48 -1.48,-1.48 -0.81,0 -1.47,0.66 -1.47,1.48l0 3.51c-0.78,-0.42 -1.52,-0.96 -2.17,-1.62 -2.71,-2.71 -6.15,-4.46 -9.93,-5.08 -0.8,-0.13 -1.56,0.41 -1.69,1.22 -0.13,0.8 0.41,1.56 1.22,1.69 3.17,0.52 6.04,1.99 8.31,4.26 2.4,2.4 5.55,3.6 8.7,3.6 3.15,0 6.3,-1.2 8.7,-3.6 1.79,-1.79 3.97,-3.09 6.37,-3.81l0 3.11c-1.6,0.62 -3.07,1.57 -4.28,2.78 -5.95,5.95 -15.63,5.95 -21.57,0 -1.56,-1.55 -3.5,-2.66 -5.63,-3.21 -0.79,-0.2 -1.59,0.28 -1.79,1.07 -0.21,0.79 0.27,1.59 1.06,1.79 1.61,0.42 3.09,1.26 4.27,2.44 2.41,2.41 5.34,4 8.43,4.77l0 5.54c-3.19,0.8 -6.09,2.43 -8.43,4.77 -1.18,1.19 -2.66,2.03 -4.27,2.44 -0.79,0.21 -1.27,1.01 -1.06,1.8 0.17,0.66 0.77,1.11 1.42,1.11 0.12,0 0.25,-0.02 0.37,-0.05 2.13,-0.55 4.07,-1.66 5.63,-3.21 1.78,-1.79 3.95,-3.08 6.34,-3.8l0 3.11c-1.59,0.62 -3.05,1.56 -4.26,2.77 -2.27,2.27 -5.14,3.75 -8.31,4.26 -0.81,0.13 -1.35,0.89 -1.22,1.7 0.12,0.72 0.74,1.23 1.45,1.23 0.08,0 0.16,0 0.24,-0.02 3.78,-0.61 7.22,-2.37 9.93,-5.08 0.64,-0.64 1.37,-1.19 2.17,-1.62l0 13.4c0,0.82 0.66,1.48 1.47,1.48 0.82,0 1.48,-0.66 1.48,-1.48l0 -21.58c0,0 0,0 0,-0.01l0 -6.27c0.49,0.04 0.99,0.06 1.49,0.06 0.49,0 0.97,-0.02 1.45,-0.06l0 27.86c0,0.82 0.66,1.48 1.48,1.48 0.81,0 1.47,-0.66 1.47,-1.48l0 -13.42c0.81,0.43 1.56,0.98 2.22,1.64 2.36,2.37 5.27,4 8.45,4.79l0 6.99c0,0.82 0.66,1.48 1.47,1.48 0.81,0 1.47,-0.66 1.47,-1.48l0 -6.52c0.49,0.04 0.98,0.06 1.48,0.06 0.49,0 0.98,-0.02 1.47,-0.06l0 6.52c0,0.82 0.66,1.48 1.48,1.48 0.81,0 1.47,-0.66 1.47,-1.48l0 -6.99c3.17,-0.79 6.08,-2.42 8.45,-4.79 0.64,-0.64 1.37,-1.19 2.16,-1.61l0 13.39c0,0.82 0.66,1.48 1.48,1.48 0.81,0 1.47,-0.66 1.47,-1.48l0 -21.55c0.01,-0.04 0,-0.09 0,-0.13l0 -6.18c0.5,0.04 1,0.06 1.5,0.06 0.49,0 0.97,-0.02 1.45,-0.06l0 21.97c0,0.81 0.66,1.47 1.48,1.47 0.81,0 1.47,-0.66 1.47,-1.47l0 -7.53c0.81,0.43 1.56,0.98 2.22,1.64 2.71,2.71 6.14,4.47 9.93,5.08 0.08,0.02 0.16,0.02 0.23,0.02 0.71,0 1.34,-0.51 1.46,-1.23 0.13,-0.81 -0.42,-1.57 -1.22,-1.7zm-36.5 -5.69c-0.5,0 -0.99,-0.04 -1.48,-0.12l0 -33.78c0.49,0.04 0.99,0.06 1.48,0.06 0.49,0 0.98,-0.02 1.47,-0.06l0 33.78c-0.48,0.08 -0.97,0.12 -1.47,0.12zm12.87 -24.08c-2.35,-2.34 -5.25,-3.98 -8.45,-4.78l0 -5.52c3.1,-0.77 6.03,-2.37 8.45,-4.78 0.64,-0.64 1.37,-1.19 2.16,-1.61l0 18.31c-0.77,-0.42 -1.5,-0.96 -2.16,-1.62zm-21.57 -19.25c2.32,2.32 5.41,3.6 8.7,3.6l0 0c3.29,0 6.38,-1.28 8.7,-3.6 1.78,-1.79 3.95,-3.08 6.33,-3.8l0 3.11c-1.58,0.62 -3.04,1.56 -4.25,2.77 -5.94,5.95 -15.62,5.95 -21.57,0 -1.22,-1.22 -2.69,-2.17 -4.3,-2.79l0 -3.11c2.41,0.72 4.59,2.02 6.39,3.82zm-4.17 19.25c-0.67,0.67 -1.42,1.22 -2.22,1.65l0 -18.37c0.81,0.43 1.56,0.98 2.22,1.64 2.42,2.41 5.35,4.01 8.45,4.78l0 5.52c-3.2,0.8 -6.1,2.43 -8.45,4.78zm6.25 6.26c0.65,-0.65 1.39,-1.2 2.2,-1.63l0 18.35c-0.8,-0.43 -1.54,-0.98 -2.2,-1.64 -2.35,-2.35 -5.26,-3.99 -8.47,-4.78l0 -5.52c3.11,-0.76 6.05,-2.36 8.47,-4.78zm17.4 19.25c-5.94,5.95 -15.62,5.95 -21.57,0 -1.22,-1.22 -2.69,-2.17 -4.3,-2.78l0 -3.12c2.41,0.72 4.59,2.02 6.39,3.82 2.32,2.32 5.41,3.6 8.7,3.6 3.29,0 6.38,-1.28 8.7,-3.6 1.78,-1.79 3.95,-3.08 6.33,-3.8l0 3.12c-1.58,0.61 -3.04,1.55 -4.25,2.76zm4.25 -8.94c-3.18,0.8 -6.07,2.43 -8.42,4.77 -0.65,0.66 -1.39,1.21 -2.19,1.64l0 -18.35c0.8,0.43 1.55,0.98 2.19,1.63 2.41,2.41 5.34,4 8.42,4.77l0 5.54z"/>
   </g>
   <rect fill="none" width="120" height="120"/>
  </g>
 </g>
</svg>
