<?xml version="1.0" encoding="UTF-8"?>
<!DOCTYPE svg PUBLIC "-//W3C//DTD SVG 1.1//EN" "http://www.w3.org/Graphics/SVG/1.1/DTD/svg11.dtd">
<!-- Creator: CorelDRAW 2018 (64 Bit Versão de avaliação) -->
<svg xmlns="http://www.w3.org/2000/svg" xml:space="preserve" width="300px" height="300px" version="1.1" shape-rendering="geometricPrecision" text-rendering="geometricPrecision" image-rendering="optimizeQuality" fill-rule="evenodd" clip-rule="evenodd"
viewBox="0 0 61.25 61.25"
 xmlns:xlink="http://www.w3.org/1999/xlink">
 <g id="Camada_x0020_1">
  <metadata id="CorelCorpID_0Corel-Layer"/>
  <g id="_2260889568496">
   <g>
    <path fill="#2C2A2C" fill-rule="nonzero" d="M30.54 14.46c0.49,0.05 0.91,-0.33 0.91,-0.82 0,-0.46 -0.37,-0.83 -0.82,-0.83 -0.46,0 -0.83,0.37 -0.83,0.83 0,0.42 0.32,0.78 0.74,0.82z"/>
    <path fill="#2C2A2C" fill-rule="nonzero" d="M46.3 28.75c0,9.85 -6.29,18.38 -15.67,21.3 -9.31,-2.9 -15.67,-11.51 -15.67,-21.3l0 -12.7c2.52,-0.36 4.52,-2.36 4.89,-4.89l21.56 0c0.36,2.53 2.36,4.53 4.89,4.89l0 12.7zm0.82 -14.29c-2.27,0 -4.12,-1.85 -4.12,-4.12 0,-0.46 -0.37,-0.83 -0.83,-0.83l-23.09 0c-0.45,0 -0.82,0.37 -0.82,0.83 0,2.27 -1.85,4.12 -4.13,4.12 -0.45,0 -0.82,0.37 -0.82,0.83l0 13.46c0,10.48 6.83,19.88 17.08,22.96 0.08,0.02 0.16,0.03 0.24,0.03 0.08,0 0.16,-0.01 0.23,-0.03 10.03,-3.01 17.09,-12.25 17.09,-22.96l0 -13.46c0,-0.46 -0.37,-0.83 -0.83,-0.83z"/>
    <path fill="#2C2A2C" fill-rule="nonzero" d="M40.32 13.31c-0.13,-0.3 -0.43,-0.5 -0.76,-0.5l-5.64 0c-0.45,0 -0.82,0.37 -0.82,0.83 0,0.45 0.37,0.82 0.82,0.82l5.12 0c0.87,1.71 2.25,3.09 3.96,3.96l0 10.33c0,8.07 -4.85,15.03 -12.37,17.82 -7.53,-2.79 -12.37,-9.75 -12.37,-17.82l0 -10.33c1.7,-0.87 3.08,-2.25 3.95,-3.96l5.12 0c0.46,0 0.82,-0.37 0.82,-0.82 0,-0.46 -0.36,-0.83 -0.82,-0.83l-5.64 0c-0.33,0 -0.62,0.2 -0.75,0.5 -0.76,1.72 -2.12,3.08 -3.84,3.83 -0.3,0.13 -0.49,0.43 -0.49,0.76l0 10.85c0,8.84 5.47,16.54 13.74,19.47 0.09,0.03 0.18,0.05 0.28,0.05 0.09,0 0.18,-0.02 0.27,-0.05 8.27,-2.92 13.75,-10.62 13.75,-19.47l0 -10.85c0,-0.33 -0.2,-0.63 -0.5,-0.76 -1.72,-0.75 -3.08,-2.11 -3.83,-3.83z"/>
    <path fill="#2C2A2C" fill-rule="nonzero" d="M36.4 28.98c0,3.18 -2.59,5.77 -5.77,5.77 -3.19,0 -5.78,-2.59 -5.78,-5.77 0,-3.19 2.59,-5.78 5.78,-5.78 3.18,0 5.77,2.59 5.77,5.78zm-13.2 0c0,4.09 3.33,7.42 7.43,7.42 4.09,0 7.42,-3.33 7.42,-7.42 0,-4.1 -3.33,-7.42 -7.42,-7.42 -4.1,0 -7.43,3.32 -7.43,7.42z"/>
    <path fill="#2C2A2C" fill-rule="nonzero" d="M28.74 29.22c-0.33,-0.32 -0.85,-0.32 -1.17,0 -0.32,0.32 -0.32,0.84 0,1.17l1.65 1.65c0.16,0.16 0.37,0.24 0.58,0.24 0.21,0 0.42,-0.08 0.59,-0.25l4.12 -4.12c0.32,-0.32 0.32,-0.84 0,-1.17 -0.32,-0.32 -0.84,-0.32 -1.17,0l-3.54 3.55 -1.06 -1.07z"/>
   </g>
   <rect fill="none" width="61.25" height="61.25"/>
  </g>
 </g>
</svg>
