<?xml version="1.0" encoding="UTF-8"?>
<!DOCTYPE svg PUBLIC "-//W3C//DTD SVG 1.1//EN" "http://www.w3.org/Graphics/SVG/1.1/DTD/svg11.dtd">
<!-- Creator: CorelDRAW 2018 (64 Bit Versão de avaliação) -->
<svg xmlns="http://www.w3.org/2000/svg" xml:space="preserve" width="1000px" height="357px" version="1.1" shape-rendering="geometricPrecision" text-rendering="geometricPrecision" image-rendering="optimizeQuality" fill-rule="evenodd" clip-rule="evenodd"
viewBox="0 0 2399.36 857.22"
 xmlns:xlink="http://www.w3.org/1999/xlink">
 <g id="Camada_x0020_1">
  <metadata id="CorelCorpID_0Corel-Layer"/>
  <g id="_1587934830176">
   <path fill="#472E0A" d="M137.01 680.53l9.21 26.51c1.94,4.88 3.68,7.94 5.53,12.54 2.43,6.05 4.92,7.94 5.9,12.16 -5.03,-3.37 -28.27,-30.37 -30.97,-35.7 -4.58,-4.63 -10.95,-14.95 -14.79,-20.91 -2.49,-3.86 -4.49,-7.2 -6.89,-11.18 -1.23,-2.04 -1.82,-3.35 -2.97,-5.62 -1.46,-2.92 -2.16,-3.5 -3.74,-6.54 -4.09,-9.66 -8.65,-18.65 -12.16,-29.18 -3.4,-10.19 -6.27,-22.02 -7.7,-34.46 -3.15,-27.4 0.88,-55.49 6.27,-77.33 9.52,-38.56 36.45,-80.18 66.19,-104.13 3.86,-3.1 7.1,-6.45 11.18,-9.47 37.26,-27.6 55.12,-37.58 101.11,-58.9l80 -36.99c5.09,-2.55 24.53,-12.44 26.95,-16.06 -11.99,-2.8 -24.2,-5.09 -36.2,-7.7 -7.44,-1.61 -6.48,-0.45 -11.39,2.25l-18.37 10.02c-4.32,2.42 -9.77,5.19 -14.4,7.11 -14.75,6.09 -30.44,14.53 -44.66,21.58l-13.97 7.53c-2.71,1.62 -4.69,2.53 -7.21,3.98 -2.2,1.26 -4.76,2.96 -6.96,4.22 -45.16,25.79 -87.39,60.72 -114.87,105.36 -17.21,27.94 -29.59,64.26 -33.76,98.72 -0.74,6.12 -1.9,13.45 -1.91,19.6 -0.01,22.88 -2.62,35.62 2.24,62.34 2.11,11.58 5.05,25.66 8.98,34.95 2.6,8.34 13.8,35.08 19.55,42.25 1.08,1.34 0.2,0.49 1.09,1.14 3.66,8.97 24.82,35.9 32.03,43.25l3.89 3.81c1.61,1.09 0.42,0.64 1.93,0.8 1.66,3.87 5.81,6.99 8.82,9.99l13.77 12.91c3.18,3.03 12.7,10.6 16.13,12.14 2.6,3.87 25.66,17.28 30.96,19.91 31.8,15.77 60.91,26.94 98.05,30.13 51.15,4.39 87,-1.58 130.79,-18.95 24.59,-9.76 29.88,-15.77 50.09,-27.53 3.85,-3.03 7.69,-5.55 11.65,-8.8 2.02,-1.67 3.59,-2.93 5.73,-4.59l11.46 -10.05c4.67,-4.72 13.66,-12.45 15.69,-16.65 1.76,-0.58 4.79,-4.55 6.15,-6.24 9.74,-12.07 33.9,-44.3 35.89,-56.05 3.91,-4.04 11.75,-26.73 13.34,-31.5 2.51,-7.52 9.14,-29.01 9.14,-36.24 1.67,-3.98 3.98,-24.31 4.31,-30.32 0.87,-16.31 0.47,-33.8 -1.57,-50.06 -5.47,-43.65 -21.94,-90.08 -49.06,-124.7 -2.64,-3.37 -5.55,-6.73 -7.87,-10.2 -6.27,4.2 -17.15,12.15 -24.09,13.77 0.83,3.11 9.94,14.11 12.53,17.57 24.07,32.03 38.26,68 42.38,108.17 1.54,15 2.07,44.24 -0.72,57.72 0,5.51 -1.73,13.21 -2.79,18.48 -2.76,13.77 -7.01,27.92 -12.31,41.02 -1.39,3.42 -2.69,4.85 -2.96,8.53 -1.92,1.65 -3.44,5.71 -4.59,8.02l-9.76 17.76c-8.23,13.8 -18.33,27.82 -29.52,38.85 -3.35,5.31 -18.61,18.58 -23.97,22.94 -2.38,1.94 -6.74,6 -9.58,6.76 5.86,-8.75 25.37,-34.13 27.52,-43.99 2.85,-1.82 9.83,-19.26 11.56,-23.6 8.48,-21.27 21.13,-61.67 21.13,-84.42 1.42,-2.66 0.48,-0.42 0.87,-3.7l1.72 -33.55c0,-9.25 0.5,-29.12 -1.73,-37.66 0,-14.33 -11.79,-69.73 -18.06,-79.43 -0.67,-7.62 -15.63,-36.46 -20.05,-44.37 -4.64,-8.3 -16.4,-26.21 -22.84,-33.94 -1.95,-2.34 -2.74,-1.96 -3.57,-5.04 3.31,2.21 6.43,4.24 9.59,6.77l9.34 7.86c5.3,-1.24 21.59,-9.51 24.09,-12.91l-8.97 -8.24c-12.04,-9.52 -18.39,-13.89 -31.3,-22.03l-22.51 -12.76c-2.01,-1.04 -3.92,-1.64 -6.03,-2.57 -33.3,-14.81 -50.66,-19.76 -90.03,-24.52 -4.29,-0.52 -5.28,1.13 -11.99,5.11 -7.8,4.63 -15.75,7.53 -23.59,11.68 0,59.52 -5.84,54.55 8.42,50.57l17.39 -4.98c0,-12.3 0.86,-21.89 0.86,-33.55 8.27,4.38 13.24,7.32 20.02,14.39l14.98 20.29c4.4,7.4 8.3,14.33 12.03,22.38 2.2,4.75 9.35,20.82 9.74,25.53 6.12,-0.14 19.26,-8.13 24.95,-8.61 -0.18,-8.13 -16.91,-41.94 -23.05,-51.79 -1.5,-2.42 -2.99,-4.48 -4.48,-6.71 4.99,1.33 24.88,16.14 29.05,19.99 2.28,2.12 3.7,4.05 6.1,5.95 11.82,9.38 31.5,37 37.68,48.34l16.64 33.16 6.14 18.05c1.95,5.83 3.92,12.78 5.57,19.37 2.18,8.72 7.22,33.58 7.22,42.01 0.12,4.96 1.59,12.65 1.75,17.85 0.19,6.45 -0.03,13.32 -0.03,19.81 0,8.37 -0.56,32.29 -2.58,37.25 0,19.45 -14.33,66.07 -23.22,84.06l-6.04 12.03c-1.21,2.31 -5.46,10 -6.01,11.93 -2.67,3.38 -4.68,7.13 -7.23,10.95l-23.95 30.25c-7.78,7.69 -31.23,28.88 -41.09,31.18 6.07,-9.06 10.75,-17.61 15.79,-28.09 6.06,-12.63 8.63,-23.31 12.6,-32.25 3.01,-12.03 6.87,-21.65 10.67,-38.25 1.63,-7.12 7.4,-35.57 7.4,-41.77 1.35,-8.14 3.17,-20.41 3.44,-29.11 0.32,-10.46 1.72,-19.75 1.72,-30.98 0,-7.26 0.39,-14.04 0.74,-19.91 0.17,-3.01 -0.76,-5.02 -0.77,-9.3 -0.07,-35.71 -3.39,-69.69 -10.21,-104.2 -1.02,-5.16 -3.41,-13.02 -3.52,-17.99 4.1,-0.34 27.19,-8.51 30.96,-10.32 -2.09,-3.95 -4.58,-7.23 -6.92,-11.14 -2.36,-3.97 -4.51,-6.82 -6.84,-11.23 -4.32,0.36 -22.54,6.9 -27.4,8.73 -8.63,3.23 -17.39,6.24 -26.43,9.7 -9.03,3.46 -43.5,16.65 -51.98,21.14 0,11.77 0.86,20.61 0.86,31.83 4.92,-2.6 9.33,-5.21 14.35,-8.01l31.86 -14.6c5.56,-2.39 11.47,-4.18 16.59,-6.64 0.09,4.26 2.2,10.98 3.08,15.85 3.72,20.7 4.13,31.58 6.88,50.76l2.08 75.42c0,10.93 -1.22,20.37 -1.73,30.87 -0.21,4.26 -1.15,10.53 -1.64,14.72 -0.61,5.23 -1.79,10.97 -1.79,16.18 -1.45,3.56 -3.18,17.32 -4.09,21.81 -1.6,7.98 -2.95,14.17 -4.86,21.8 -4.25,17.02 -10.65,33.02 -12.56,40.66 -1.68,3.45 -3.03,7.03 -4.66,10.94 -1.6,3.87 -3.24,6.7 -5.09,10.4 -8.25,16.51 -18.57,32.86 -33.61,43.81 -3.49,2.53 -6.34,3.59 -9.97,5.51l0 -72.01 0 -43.45 0 -45.6 0 -75.29 0 -164.53c-3.66,0.85 -25.48,6.04 -26.51,9.62l-0.16 160.93 0 74.43 0 40.68 0 48.38 0 68.56c-7.34,0 -8.95,-0.99 -13.77,-3.43 -9.59,-4.86 -18.23,-10.57 -26.41,-17.47l-13.65 -13.01c-8.34,-10.8 -13.63,-14.44 -23.23,-30.11 -8.3,-13.54 -17.91,-32.53 -22.37,-48.17 -5.14,-18.03 -9.6,-43.09 -5.52,-61.69 0,-23.2 14.2,-51.4 25.53,-70.71 1.57,-2.67 3.63,-5.7 5.44,-7.74 4.69,-8.05 18.38,-21.95 25.16,-28.76l9.25 -8.58c8.5,-7.2 26.23,-20.4 35.27,-25.18l0 -29.25c-5.32,0.44 -24.71,12.48 -29.01,15.72 -10.11,7.64 -15.51,10.96 -24.74,20.41 -26.57,25.69 -29.52,37.47 -35.43,43.87 -1.21,3.13 -2.48,5.19 -4.23,8.11 -6.68,11.16 -15.33,35.78 -18.44,48.66 -1.32,5.5 -4.15,17.21 -4.29,23.12 -0.6,7.7 -1.73,13.34 -1.72,22.48 0.06,47.39 11.31,86.34 36.3,125.44 1.51,2.37 4.35,5.5 4.99,7.91l-18.71 -13.98c-15.13,-14.18 -23.99,-22.04 -36.17,-40.39 -4.41,-6.64 -8.94,-13.01 -12.5,-20.2 -1.49,-3.02 -2.63,-4.47 -4.03,-7.14l-6.87 -15.1c-4.37,-10.54 -8.21,-22.05 -11.18,-33.95 -2.61,-10.45 -6.02,-26.68 -6.02,-39.32 -2.75,-13.5 0.18,-53.42 4.3,-62.24 1.27,-14.93 17,-41.68 26.93,-53.88 10.24,-12.58 23.42,-24.63 36.89,-33.66 2.35,-1.58 4.39,-2.4 5.86,-4.56l18.64 -10.51c43.26,-23.08 91.56,-40.16 138.67,-55.75 3.73,-1.23 7.92,-2.39 11.3,-4.18 -1.43,-6.12 -10,-17.74 -12.91,-23.23l-12.8 4.4c-4.2,1.4 -7.9,2.94 -12.68,4.53 -36.99,12.31 -57.91,21.45 -90.64,38.39 -19.55,10.12 -30.46,18.06 -47.08,30.35l-18.31 16c-9.21,6.84 -27.83,31.41 -33.06,40.16 -4.75,7.93 -9.02,15.47 -12.79,24.2 -2.54,5.91 -8.65,21.18 -9.21,27.74 -2.54,5.46 -4.98,21.3 -5.86,28.59 -1.32,10.91 -1.88,21.65 -1.88,33.65 0,13.41 0.89,26.79 2.53,38.51 0.87,6.18 1.76,11.5 2.99,17.65 1.28,6.4 2.82,11.23 3.95,17.11zm193.55 156.16c0.89,0.89 3.12,-1.24 1,-0.46 -0.02,0.01 -2.44,-0.98 -1,0.46zm-172.91 -104.95c1.15,0 0.9,-0.28 0.73,0.86l-0.73 -0.86zm315.91 28.39c-0.26,-1.14 -0.49,-0.86 0.67,-0.86l-0.67 0.86zm3.25 -457.66c-4.19,6.25 -25.18,18.86 -27.53,22.37 4.35,1.01 21.34,11.4 25.81,13.76 22.61,-15.14 64.01,-65.79 29.63,-91.57 -13.25,-9.93 -25.34,-13.01 -41.57,-17.78l-24.19 -5.92 -5.46 11.03c13.88,0.37 50.57,13.25 61.68,18.77 24.27,12.06 -13.05,46.66 -16.65,47.62l4.47 -5c-3.1,-1.57 -13.25,-3.69 -17.31,-4.53l-53.9 -11.47c-38.52,-7.76 -110.69,-19.74 -143.93,-30.71 -35.57,-11.74 14.85,-34.41 20.55,-42.92 -7.41,-3.92 -14.04,-8.09 -21.51,-12.04 -9.67,8.41 -30.53,22.06 -32.63,38.81 -1.08,8.64 2.97,12.89 8.03,15.91 8.27,4.94 25.33,9.62 35.78,12.39 32.12,8.49 86.32,18.58 119.22,24.44l79.51 16.84zm31.83 10.32c5.15,0.43 18.23,6.44 22.37,8.6 7.53,3.92 15.48,8.88 15.48,18.07 0,20.21 -31.31,39.61 -48.67,46.82 -3.98,1.65 -5.36,2.9 -9.83,3.94 4,7.56 9.86,15.08 14.62,24.09 12.01,-6.36 25.98,-12.87 36.34,-22.16l12.57 -12.38c8.65,-10.74 17.33,-19.23 17.33,-37.73 0,-14.73 -10.75,-21.34 -20.92,-26.39 -8.96,-4.45 -24.56,-9.89 -34.99,-12.32 -1.01,4.33 -3.19,4.7 -4.3,9.46zm-128.18 -203.02c12.99,24.55 49.89,65.07 49.89,90.33 0,16.05 -19.24,30.1 -31.13,37.69 -7.29,4.65 -14.05,8.4 -21.51,12.9 -4.76,2.88 -20.41,10.63 -22.2,13.07l32.2 6.59c5.97,1.46 4.7,1.25 11.95,-4.6 18.39,-14.85 33.51,-31.46 40.67,-56.53 9.11,-31.95 -1.43,-66.01 -15.14,-93.42 -2.29,-4.58 -4.53,-8.57 -6.88,-12.91 -1.51,-2.79 -5.57,-10.45 -7.74,-12.04l-22.2 13.93c-2.85,1.92 -4.94,3.42 -7.91,4.99zm-156.57 -12.04c0,35.94 2.4,60.35 33.91,83.08 25.22,18.2 54.51,28.92 85.02,35.42l33.83 6.6c6.19,1.17 11.97,1.87 17.65,3 14.03,2.8 13.16,3.63 21.95,-2.84 2.24,-1.66 3.89,-2.88 4.64,-5.68l-37.62 -7.12c-33.23,-5.71 -79.27,-13.87 -103.48,-32.44 -9.55,-7.32 -14.2,-13.71 -19.78,-24.95 -19.07,-38.38 9.33,-107.11 9.48,-113.57 -6.63,-1.76 -28.04,-18.46 -33.56,-18.92 -0.25,3.01 -1.21,5.89 -1.93,9.24 -0.57,2.68 -1.32,5.71 -2.01,9.18 -3.76,18.97 -8.1,39.18 -8.1,59z"/>
   <g>
    <path fill="#472E0A" d="M1573.07 548.1c-1.4,-6.04 -13.96,-28.03 -18.04,-38.09 -4.85,-11.98 -12.4,-25.36 -18.53,-37.6 -6.44,-12.89 -12.04,-25.36 -18.28,-37.85 -3.36,-6.71 -5.25,-12.27 -10.48,-17.58 -10.53,-10.67 -15.3,-9.21 -30.34,-9.21 -13.44,0 -25.52,10.05 -25.52,26.79l0 147.98c0,2.94 0.89,3.83 3.83,3.83l31.89 0 0 -136.5 9.36 17.44c3.36,6.73 5.99,11.98 9.35,18.71l37.85 74.41c8.74,17.49 11.31,28.49 31.46,28.49 17.02,0 22.99,-15.35 28.92,-27.21 4.19,-8.39 52.82,-107.54 56.56,-111.84l0 136.5 31.89 0c2.94,0 3.82,-0.89 3.82,-3.83l0 -141.6c0,-10.95 -1.57,-20.13 -7.32,-25.84 -10.5,-10.42 -33.62,-11.66 -45.32,-1.29 -7.03,6.23 -7.67,8.69 -11.99,17.35 -6.73,13.48 -13,26.01 -19.56,39.12 -3.52,7.04 -34.48,74.11 -39.55,77.82zm593.62 -98.05l57.22 0 0 -43.38 33.17 0c0,36.57 0,73.14 0,109.71 0,18.11 1.96,38.37 -5.29,49.57 -6.42,9.93 -22.01,16.75 -36.63,18.04 -25.51,0 -69.88,4.3 -91.88,-3.97 -17.29,-6.49 -20.63,-20.44 -20.56,-38.12 0.05,-12.76 0,-25.52 0,-38.27 0,-21.62 -2.77,-41.68 27.04,-50.78 10.51,-3.21 23.38,-2.8 36.93,-2.8zm50.39 23.57l-65.58 0c-10.52,0 -19.13,8.61 -19.13,19.13l0 49.64c0,10.52 8.61,19.13 19.13,19.13l53.03 0c10.52,0 19.13,-8.61 19.13,-19.13l0 -62.19c0,-3.62 -2.96,-6.58 -6.58,-6.58zm-1323.95 -41.61l30.62 0 0 -24.24 -30.62 0 0 24.24zm1398.15 0l30.62 0 0 -24.24 -30.62 0 0 24.24zm-1.27 153.09l31.89 0 0 -133.95 -31.89 0 0 133.95zm-1398.15 0l31.89 0 0 -133.95 -31.89 0 0 133.95zm256.41 -90.58l0 86.75c0,6.57 12.6,3.83 30.62,3.83 5.81,0 3.86,-9.06 3.83,-15.31l-0.01 -61.24c0,-14.91 -2.76,-26.18 7.27,-32.27 6.3,-3.83 9.61,-1.41 17.9,-2.52l28.41 -0.92 0 -24.24c-48.26,0 -88.02,-5.64 -88.02,45.92zm-92.03 -43.37l-57.23 0 0 -43.38 -33.16 0c0,36.58 0,73.14 0,109.71 0,18.11 -1.96,38.37 5.28,49.57 6.43,9.93 22.01,16.75 36.63,18.05 25.52,0 69.89,4.29 91.89,-3.97 17.28,-6.5 20.63,-20.45 20.56,-38.13 -0.05,-12.75 -0.01,-25.52 -0.01,-38.27 0,-21.62 2.77,-41.68 -27.03,-50.78 -10.52,-3.21 -23.39,-2.8 -36.93,-2.8zm-50.4 23.57l65.58 0c10.53,0 19.14,8.61 19.14,19.13l0 49.64c0,10.52 -8.61,19.13 -19.14,19.13l-53.02 0c-10.52,0 -19.14,-8.61 -19.14,-19.13l0 -62.19c0,-3.62 2.96,-6.58 6.58,-6.58zm727.97 72.1c0,23.98 19.21,38.28 43.37,38.28l65.06 0c23.37,0 43.38,-13.91 43.38,-37l0 -96.95 -31.9 0 0 84.19c0,25.49 -33.83,20.41 -58.68,20.41 -18.11,0 -29.34,-4.86 -29.34,-22.96l0 -81.64 -31.89 0 0 95.67zm182.42 -59.95l0 98.23 31.89 0 0 -85.48c0,-11.93 8.81,-19.13 20.42,-19.13 18.59,0 50.98,-3.24 60.95,5.38 3.89,3.37 5.38,9.39 5.38,16.31l0 82.92 31.89 0 0 -93.13c0,-16.15 -5.86,-27.07 -15.82,-33.93 -17.01,-11.73 -98.15,-11.17 -116.45,-1.39 -10.12,5.4 -18.26,15.38 -18.26,30.22zm-1220.83 -47.2l0 145.43 35.72 0 0 -75.27 122.47 0 0 -26.79 -122.47 0c0,-58.39 -11.82,-48.48 122.47,-48.48l0 -26.79 -113.54 0c-12.08,0 -21.99,3.51 -29.63,8.64 -6.91,4.63 -15.02,12.29 -15.02,23.26zm574.06 34.44l95.53 -0.54c2.66,-0.02 5.34,-0.03 8,-0.03 9.12,0 16.58,7.46 16.58,16.59l0 3.84 -66.4 0c-1.14,0.11 -2.35,0.19 -3.63,0.23 -2.69,0.08 -5.37,0.18 -7.99,0.31 -47.72,2.38 -43.37,30.56 -43.37,57.42 0,22.17 21.61,33.17 42.1,33.17l70.16 0c18.73,0 39.55,-11.45 39.55,-29.35l0 -77.81c0,-9.61 -11.06,-19.75 -21.29,-23.36 -20.83,-7.34 -103.23,-4.71 -129.24,-4.71l0 24.24zm48 42.93l65.18 0c4.27,0 7.77,3.5 7.77,7.77l0 20.33c0,9.43 -7.71,17.15 -17.14,17.15l-55.81 0c-9.43,0 -17.14,-7.72 -17.14,-17.15l0 -10.96c0,-9.43 7.71,-17.14 17.14,-17.14z"/>
    <g>
     <path fill="#472E0A" d="M954.37 643.78l0 85.47c12.93,0 12.07,-0.02 23.91,0.04 23.23,0.12 19.46,-1.3 19.46,-51.07 0,-16.25 -9.35,-14.03 -24.24,-14.03 -3.93,0 -3.83,1.77 -3.83,5.1 0,9.31 16.59,-1.65 16.59,7.65l0 39.55c0,5.78 -6.54,3.83 -20.41,3.83l0 -80.37c-8.21,0 -11.48,-1.13 -11.48,3.83z"/>
     <path fill="#472E0A" d="M1159.75 693.53c-9.12,-6.11 -30.62,-7.85 -30.62,10.2 0,26.92 -0.44,25.52 22.97,25.52 3.92,0 3.82,-1.77 3.82,-5.11 0,-9.2 -15.31,1.56 -15.31,-7.65 0,-20.35 -2.46,-17.86 19.14,-17.86 0,35.01 -3.17,30.62 11.48,30.62l0 -53.58c0,-14.74 -15.86,-11.48 -33.17,-11.48 -4.06,0 -7.1,5.93 -5.15,7.88 5.37,5.37 24.88,-4.67 26.86,4.86 0.43,2.07 -0.02,13.56 -0.02,16.6z"/>
     <path fill="#472E0A" d="M2094.83 673.12c1.62,6.95 1.27,11.87 1.27,20.41 -10.65,-7.13 -30.61,-5.23 -30.61,7.65 0,29.47 -2.46,28.07 25.51,28.07 2.41,-10.07 3.2,-8.93 -14.03,-8.93 0,-26.07 -4.19,-21.69 19.13,-21.69 0,33.19 -2.37,30.62 7.66,30.62 2.94,0 3.82,-0.89 3.82,-3.83l0 -44.65c0,-20.3 -10.09,-16.58 -33.16,-16.58 -2.68,0 -5,2.28 -5.74,4.73 -2.13,7.09 13.23,4.2 26.15,4.2z"/>
     <path fill="#472E0A" d="M1567.97 668.01l0 61.24 10.21 0c2.79,-12 1.27,-42.08 1.27,-56.13l19.14 0 0 52.3c0,5.6 11.48,5.6 11.48,0l0 -51.03c0,-12.78 -13.58,-10.2 -25.51,-10.2 -6.44,0 1.72,3.53 -6.32,1.13l-6.44 -1.13c-2.94,0 -3.83,0.89 -3.83,3.82z"/>
     <path fill="#472E0A" d="M1742.74 680.77c0,53.66 -4.06,48.48 31.89,48.48 3.93,0 3.83,-1.77 3.83,-5.11 0,-4.92 -4.07,-3.97 -8.82,-3.93 -4.72,0.03 -9.42,0.11 -14.14,0.11 -2.25,-9.67 -2.25,-37.54 0,-47.2l15.3 0c1.96,8.38 1.96,13.3 0,21.68 -5.91,0 -12.75,-1.83 -12.75,3.83 0,7.55 24.24,9.59 24.24,-7.65 0,-29.26 1.77,-26.79 -28.07,-26.79 -9.51,0 -11.48,7.11 -11.48,16.58z"/>
     <path fill="#472E0A" d="M810.21 652.71l0 76.54c15.77,0 11.48,7.3 11.48,-56.13 14.25,0 15.31,1.36 15.31,-5.11 0,-5.32 -4.42,-3.82 -15.31,-3.82l0 -11.48c0,-10.21 20.42,3.27 20.42,-8.93 0,-5.89 -7.18,-3.83 -21.69,-3.83 -7.61,0 -10.21,5.15 -10.21,12.76z"/>
     <path fill="#472E0A" d="M1224.81 676.94c0,24.1 -1.93,24.24 22.96,24.24 8.74,37.51 -22.96,7.13 -22.96,24.24 0,6.09 8.54,3.83 24.24,3.83 13.07,0 10.2,-14.43 10.2,-28.07 0,-3.44 -0.6,-3.52 -1.27,-6.38 -7.34,-3.52 -12.37,-2.55 -21.69,-2.55l0 -19.13 21.69 0c0,-11.1 2.64,-8.93 -22.96,-8.93 -7.61,0 -10.21,5.15 -10.21,12.75z"/>
     <path fill="#472E0A" d="M2161.16 674.39c0,11.24 -0.91,14.82 1.28,24.24 7.2,3.45 11.51,2.55 21.69,2.55 0.52,6.27 0.52,12.89 0,19.14 -16.76,0 -22.97,-2.59 -22.97,5.1 0,6.09 8.54,3.83 24.24,3.83 12.63,0 10.21,-14.23 10.21,-26.79 0,-12.03 -11.15,-10.21 -22.96,-10.21 -1.91,-8.18 -1.91,-10.95 0,-19.13 16.11,0 21.68,2.5 21.68,-5.11 0,-5.98 -7.83,-3.82 -22.96,-3.82 -6.17,0 -10.21,4.03 -10.21,10.2z"/>
     <path fill="#472E0A" d="M1413.61 671.84l0 22.96c0,11.42 22.96,1.27 22.96,10.21l0 15.31 -22.96 0 0 8.93c34.58,0 34.45,2.91 34.45,-24.24 0,-22.8 -24.24,-5.93 -24.24,-16.59l0 -11.48c0,-9.19 22.96,0.87 22.96,-6.37 0,-3.45 -0.61,-3.52 -1.27,-6.38 -10.88,0 -31.9,-2.7 -31.9,7.65z"/>
     <path fill="#472E0A" d="M1838.42 650.15c0,14.89 0,29.77 0,44.65 0,33.93 -3.81,34.45 22.96,34.45 4.84,0 7.58,-8.93 1.27,-8.93l-12.75 0 0 -47.2c14.24,0 15.31,1.36 15.31,-5.11 0,-5.32 -4.43,-3.82 -15.31,-3.82 0,-9.47 3.21,-19.74 -11.48,-14.04z"/>
     <path fill="#472E0A" d="M1664.92 656.53l0 56.13c0,19 8.35,16.59 22.96,16.59 4.07,0 7.11,-5.94 5.16,-7.89 -2.29,-2.28 -11.21,-1.04 -15.36,-1.04 -2.73,-11.74 -1.28,-34.12 -1.28,-47.2 21.17,0 16.11,0.71 15.31,-8.93l-15.31 0 0 -15.31c-6.47,0 -11.48,-1.44 -11.48,7.65z"/>
     <path fill="#472E0A" d="M1982.57 674.39c0,61.76 -5.7,54.86 31.89,54.86 0.84,-10.11 6.71,-8.93 -20.41,-8.93l0 -47.2c27.12,0 21.25,1.17 20.41,-8.93 -14.06,0 -31.89,-3.65 -31.89,10.2z"/>
     <path fill="#472E0A" d="M1052.59 668.01l0 61.24 10.21 0c2.79,-12 1.27,-42.08 1.27,-56.13 15.42,0 16.59,1.47 16.59,-5.11 0,-7.78 -14.55,-1.88 -17.01,-2.43 -4.36,-0.96 4.75,-1.39 -7.23,-1.39 -2.94,0 -3.83,0.89 -3.83,3.82z"/>
     <path fill="#472E0A" d="M1916.23 668.01l0 61.24c16.12,0 11.48,8.03 11.48,-65.06 -8.2,0 -11.48,-1.14 -11.48,3.82z"/>
     <path fill="#472E0A" d="M888.03 668.01l0 61.24c16.11,0 11.48,8.03 11.48,-65.06 -8.21,0 -11.48,-1.14 -11.48,3.82z"/>
     <path fill="#472E0A" d="M1501.63 668.01l0 61.24 10.21 0c2.84,-12.18 1.28,-46.62 1.28,-61.24 0,-5.6 -11.49,-5.6 -11.49,0z"/>
     <path fill="#472E0A" d="M1764.43 659.08c3.58,0 12.39,-11.75 13.41,-13.44 2.09,-3.46 1.5,-1.53 0.62,-5.69l-10.21 0c-1.38,5.92 -12.16,19.13 -3.82,19.13z"/>
     <path fill="#472E0A" d="M1500.36 651.43c0,6.25 0.54,11.57 12.76,5.1l0 -8.93c-9.15,0 -12.76,-1.26 -12.76,3.83z"/>
     <polygon fill="#472E0A" points="888.03,659.08 899.51,659.08 899.51,647.6 888.03,647.6 "/>
     <path fill="#472E0A" d="M1916.23 659.08c6.46,0 6.56,-0.86 11.48,-1.27l0 -10.21 -11.48 0 0 11.48z"/>
    </g>
   </g>
   <rect fill="none" width="2399.36" height="857.22"/>
  </g>
 </g>
</svg>
