<?xml version="1.0" encoding="UTF-8"?>
<!DOCTYPE svg PUBLIC "-//W3C//DTD SVG 1.1//EN" "http://www.w3.org/Graphics/SVG/1.1/DTD/svg11.dtd">
<!-- Creator: CorelDRAW 2018 (64 Bit Versão de avaliação) -->
<svg xmlns="http://www.w3.org/2000/svg" xml:space="preserve" width="300px" height="300px" version="1.1" shape-rendering="geometricPrecision" text-rendering="geometricPrecision" image-rendering="optimizeQuality" fill-rule="evenodd" clip-rule="evenodd"
viewBox="0 0 2925.14 2925.14"
 xmlns:xlink="http://www.w3.org/1999/xlink">
 <g id="Camada_x0020_1">
  <metadata id="CorelCorpID_0Corel-Layer"/>
  <g id="_2295481639792">
   <rect fill="none" x="-0.01" y="-0.01" width="2925.14" height="2925.14"/>
   <g>
    <path fill="black" fill-rule="nonzero" d="M1956.12 2342.91c-24.73,0 -49.42,-7.85 -70.98,-23.58l-422.57 -308.43 -422.57 308.43c-43.01,31.4 -98.62,31.46 -141.7,0.16 -43.09,-31.29 -60.22,-84.22 -43.65,-134.83l162.75 -497.21 -424.72 -307.14c-43.1,-31.17 -60.36,-84.01 -43.97,-134.6 16.38,-50.6 61.33,-83.31 114.5,-83.31l109.45 0c19.84,0 35.95,16.1 35.95,35.94 0,19.83 -16.11,35.92 -35.95,35.92l-109.45 0c-26.01,0 -40.88,17.36 -46.13,33.59 -5.26,16.22 -3.36,38.99 17.71,54.22l445.97 322.53c12.64,9.15 17.94,25.46 13.08,40.31l-170.9 522.12c-8.11,24.75 3.78,44.29 17.6,54.33 13.81,10.04 36.06,15.28 57.1,-0.07l443.75 -323.89c12.61,-9.21 29.75,-9.21 42.36,0l443.76 323.89c21.05,15.35 43.29,10.11 57.12,0.07 13.81,-10.04 25.68,-29.58 17.57,-54.33l-170.9 -522.12c-4.85,-14.85 0.44,-31.16 13.1,-40.31l445.96 -322.53c21.07,-15.23 22.98,-38 17.72,-54.22 -5.25,-16.23 -20.13,-33.59 -46.15,-33.59l-550.36 0c-15.6,0 -29.4,-10.03 -34.21,-24.86l-168.64 -521.74c-8.01,-24.75 -29.09,-33.58 -46.15,-33.58 -17.08,0 -38.15,8.83 -46.14,33.58l-168.66 521.74c-4.78,14.82 -18.59,24.86 -34.19,24.86l-153.43 0c-19.86,0 -35.95,-16.09 -35.95,-35.93 0,-19.83 16.09,-35.93 35.95,-35.93l127.29 0 160.6 -496.85c16.37,-50.62 61.33,-83.33 114.53,-83.33 53.21,0 98.17,32.71 114.53,83.33l160.62 496.85 524.2 0c53.19,0 98.13,32.71 114.52,83.31 16.39,50.61 -0.89,103.43 -43.98,134.6l-424.71 307.14 162.76 497.21c16.56,50.61 -0.56,103.54 -43.64,134.83 -21.51,15.63 -46.14,23.42 -70.75,23.42z"/>
    <path fill="black" fill-rule="nonzero" d="M916.39 1234.33c-9.46,0 -18.72,-3.81 -25.4,-10.49 -6.68,-6.68 -10.53,-15.95 -10.53,-25.44 0,-9.44 3.84,-18.73 10.53,-25.41 6.68,-6.68 15.94,-10.53 25.4,-10.53 9.46,0 18.71,3.85 25.4,10.53 6.69,6.73 10.53,15.97 10.53,25.41 0,9.49 -3.84,18.71 -10.53,25.44 -6.69,6.68 -15.94,10.49 -25.4,10.49z"/>
   </g>
  </g>
 </g>
</svg>
