<?xml version="1.0" encoding="UTF-8"?>
<!DOCTYPE svg PUBLIC "-//W3C//DTD SVG 1.1//EN" "http://www.w3.org/Graphics/SVG/1.1/DTD/svg11.dtd">
<!-- Creator: CorelDRAW 2018 (64 Bit Versão de avaliação) -->
<svg xmlns="http://www.w3.org/2000/svg" xml:space="preserve" width="551px" height="66px" version="1.1" shape-rendering="geometricPrecision" text-rendering="geometricPrecision" image-rendering="optimizeQuality" fill-rule="evenodd" clip-rule="evenodd"
viewBox="0 0 101.02 12.11"
 xmlns:xlink="http://www.w3.org/1999/xlink">
 <g id="Camada_x0020_1">
  <metadata id="CorelCorpID_0Corel-Layer"/>
  <path fill="#DF9934" fill-rule="nonzero" d="M10.58 0.77l3.75 3.75 4.53 -4.52 0.76 0.77 3.76 3.75 4.52 -4.52 0.77 0.77 3.75 3.75 4.52 -4.52 0.77 0.77 3.76 3.75 4.52 -4.52 0.77 0.77 3.75 3.75 4.52 -4.52 0.77 0.77 3.76 3.75 4.52 -4.52 0.76 0.77 3.76 3.75 4.52 -4.52 0.77 0.77 3.76 3.75 4.52 -4.52 0.76 0.77 3.76 3.75 4.52 -4.52 0.77 0.77 3.75 3.75 3.76 -3.75 1.53 1.53 -3.75 3.75 3.75 3.76 -1.53 1.53 -3.76 -3.75 -4.52 4.52 -4.52 -4.52 -4.52 4.52 -4.52 -4.52 -4.53 4.52 -4.52 -4.52 -4.52 4.52 -4.52 -4.52 -4.53 4.52 -4.52 -4.52 -4.52 4.52 -4.52 -4.52 -4.53 4.52 -4.52 -4.52 -4.52 4.52 -4.52 -4.52 -4.52 4.52 -4.53 -4.52 -4.52 4.52 -4.52 -4.52 -3.76 3.75 -1.53 -1.53 3.76 -3.76 -3.76 -3.75 1.53 -1.53 3.76 3.75 4.52 -4.52 0.77 0.77zm83.62 5.28l-2.99 -2.99 -2.99 2.99 2.99 2.99 2.99 -2.99zm-9.04 0l-2.99 -2.99 -2.99 2.99 2.99 2.99 2.99 -2.99zm-9.05 0l-2.99 -2.99 -2.99 2.99 2.99 2.99 2.99 -2.99zm-9.04 0l-2.99 -2.99 -2.99 2.99 2.99 2.99 2.99 -2.99zm-9.05 0l-2.99 -2.99 -2.99 2.99 2.99 2.99 2.99 -2.99zm-9.04 0l-2.99 -2.99 -2.99 2.99 2.99 2.99 2.99 -2.99zm-9.05 0l-2.99 -2.99 -2.99 2.99 2.99 2.99 2.99 -2.99zm-9.04 0l-2.99 -2.99 -2.99 2.99 2.99 2.99 2.99 -2.99zm-9.04 0l-2.99 -2.99 -2.99 2.99 2.99 2.99 2.99 -2.99zm-9.05 0l-2.99 -2.99 -2.99 2.99 2.99 2.99 2.99 -2.99z"/>
 </g>
</svg>
