<?xml version="1.0" encoding="UTF-8"?>
<!DOCTYPE svg PUBLIC "-//W3C//DTD SVG 1.1//EN" "http://www.w3.org/Graphics/SVG/1.1/DTD/svg11.dtd">
<!-- Creator: CorelDRAW 2018 (64 Bit Versão de avaliação) -->
<svg xmlns="http://www.w3.org/2000/svg" xml:space="preserve" width="300px" height="300px" version="1.1" shape-rendering="geometricPrecision" text-rendering="geometricPrecision" image-rendering="optimizeQuality" fill-rule="evenodd" clip-rule="evenodd"
viewBox="0 0 599.91 599.91"
 xmlns:xlink="http://www.w3.org/1999/xlink">
 <g id="Camada_x0020_1">
  <metadata id="CorelCorpID_0Corel-Layer"/>
  <g id="_2003083411120">
   <g>
    <path fill="black" fill-rule="nonzero" d="M448.84 334.95l-1.97 1.06c-7.97,-9.67 -21.77,-13.41 -32.29,-8.08 -0.03,0.02 -0.07,0.03 -0.1,0.05l-4.66 2.51c-11.37,-9.63 -27.57,-11.09 -40.49,-3.66l-25.06 13.64 -33.36 0c-7.22,-0.01 -14.35,-1.65 -20.86,-4.79l-4.59 -2.21c-26.64,-12.96 -58.3,-9.87 -81.92,8 -0.11,0.08 -0.22,0.16 -0.32,0.26l-11.08 9.86c-4.19,3.72 -9.14,6.48 -14.5,8.08l-6.29 -20.65c-0.65,-2.1 -2.58,-3.54 -4.78,-3.54l-53.58 0c-1.42,0 -2.78,0.62 -3.73,1.69 -0.95,1.07 -1.39,2.49 -1.22,3.91l17.86 146.44c0.31,2.5 2.43,4.39 4.95,4.39l80.37 0c1.58,0 3.07,-0.75 4.01,-2.02 0.94,-1.27 1.22,-2.92 0.76,-4.42l-10.55 -34.65 32.88 -20.78c4.4,-2.44 9.56,-3.11 14.43,-1.87 0.11,0.03 0.21,0.05 0.31,0.07l66.89 12.32c18.18,3.24 36.92,0.6 53.48,-7.56 0.22,-0.1 0.42,-0.22 0.62,-0.36l115.68 -79.43c2.18,-1.49 2.81,-4.43 1.46,-6.68 -8.75,-14.57 -27.41,-19.67 -42.35,-11.58zm-29.69 1.85c6.08,-3.05 13.73,-0.55 18.62,4.12l-43.87 23.66 -2.58 1.36c-1.38,-3.95 -3.41,-7.63 -6,-10.91l33.83 -18.23zm-44.99 -1.24c0.04,-0.02 0.08,-0.04 0.12,-0.06 8,-4.63 17.89,-4.54 25.8,0.24l-22.3 12.01c-4.25,-3.1 -9.11,-5.29 -14.25,-6.42l10.63 -5.77zm-238.9 146.37l-16.63 -136.47 44.25 0 41.61 136.47 -69.23 0zm233.43 -57.72c-14.57,7.09 -31.01,9.38 -46.96,6.52l-66.72 -12.28c-7.34,-1.81 -15.09,-0.76 -21.68,2.94 -0.08,0.04 -0.16,0.09 -0.23,0.13l-30.69 19.41 -21.86 -71.71c6.74,-2.03 12.96,-5.5 18.21,-10.19l10.93 -9.72c20.63,-15.52 48.21,-18.17 71.42,-6.87l4.59 2.22c7.86,3.79 16.48,5.76 25.2,5.77l44.5 0c13.49,0.02 25.07,9.61 27.6,22.85l-32.25 -1.45c-11.73,-0.53 -23.48,0.01 -35.1,1.62 -2.7,0.4 -4.58,2.9 -4.21,5.61 0.38,2.72 2.87,4.62 5.58,4.27 11.02,-1.53 22.16,-2.04 33.28,-1.54l37.95 1.72c0.08,0 0.15,0 0.23,0 2.75,0 4.98,-2.23 4.98,-4.99 0,-0.8 -0.03,-1.6 -0.08,-2.4l5.21 -2.74 54.99 -29.66c8.68,-4.7 19.44,-2.98 26.22,4.2l-111.11 76.29z"/>
    <path fill="black" fill-rule="nonzero" d="M151.12 461.3c0,8.67 7.03,15.7 15.71,15.7 8.67,0 15.7,-7.03 15.7,-15.7 0,-8.68 -7.03,-15.71 -15.7,-15.71 -8.67,0.01 -15.7,7.04 -15.71,15.71zm15.71 -5.73c3.16,0 5.72,2.56 5.72,5.73 0,3.16 -2.56,5.72 -5.72,5.72 -3.17,0 -5.73,-2.56 -5.73,-5.72 0,-3.17 2.57,-5.73 5.73,-5.73l0 0z"/>
    <path fill="black" fill-rule="nonzero" d="M337.88 162.12l0 -16.44c-0.1,-20.84 -17.03,-37.68 -37.86,-37.68 -20.84,0 -37.77,16.84 -37.86,37.68l0 16.44c0.09,20.84 17.02,37.68 37.86,37.68 20.83,0 37.76,-16.84 37.86,-37.68zm-65.75 0l0 -16.44c0.08,-15.34 12.55,-27.73 27.89,-27.73 15.34,0 27.8,12.39 27.88,27.73l0 16.44c-0.08,15.34 -12.54,27.73 -27.88,27.73 -15.34,0 -27.81,-12.39 -27.89,-27.73z"/>
    <path fill="black" fill-rule="nonzero" d="M238.99 302.71l122.05 0c2.76,0 4.99,-2.23 4.99,-4.99l0 -11.45 83.56 0c2.75,0 4.98,-2.23 4.98,-4.98l0 -32.38c-0.01,-19.72 -15.32,-36.03 -35,-37.29 -2.66,-0.2 -4.03,1.49 -5.14,2.85 -4.47,5.46 -11.21,8.55 -18.27,8.38 -7.06,-0.17 -13.64,-3.59 -17.84,-9.27 -0.97,-1.31 -2.51,-2.06 -4.13,-2.02 -6.49,0.14 -12.81,1.99 -18.35,5.35 -7.39,-8.59 -17.95,-13.83 -29.27,-14.51 -2.57,-0.11 -3.88,1.46 -5.14,2.99 -5.24,6.41 -13.16,10.04 -21.44,9.84 -8.28,-0.2 -16.01,-4.21 -20.94,-10.87 -0.97,-1.32 -2.51,-2.07 -4.13,-2.03 -10.94,0.26 -21.34,4.79 -28.97,12.64 -0.63,0.64 -1.23,1.31 -1.81,1.99 -5.15,-3.14 -10.99,-4.97 -17.01,-5.34 -2.65,-0.2 -4.03,1.49 -5.13,2.84 -4.48,5.47 -11.22,8.56 -18.28,8.39 -7.05,-0.18 -13.64,-3.6 -17.84,-9.27 -0.97,-1.31 -2.51,-2.06 -4.13,-2.02 -20.27,0.51 -36.42,17.08 -36.42,37.35l0 32.38c0,2.75 2.23,4.98 4.98,4.98l83.69 0 0 11.45c0,2.76 2.23,4.99 4.99,4.99zm133.06 -81.02c6.22,7.06 15.17,11.12 24.58,11.15 9.41,0.02 18.38,-3.99 24.64,-11.02 13.4,2.03 23.32,13.53 23.33,27.09l0 27.39 -78.57 0 0 -32c0.01,-6.64 -1.57,-13.19 -4.61,-19.1 3.26,-1.9 6.88,-3.09 10.63,-3.51zm-99.28 -9.23c6.97,8.08 17.11,12.73 27.79,12.76 10.68,0.02 20.83,-4.58 27.85,-12.62 15.83,2.18 27.63,15.71 27.65,31.7l0 48.44 -112.08 0 0 -48.44c0.1,-16.39 12.49,-30.09 28.79,-31.84zm-117.47 63.84l0 -27.39c0.09,-13.9 10.51,-25.57 24.32,-27.21 6.22,7.05 15.17,11.11 24.58,11.13 9.4,0.03 18.37,-3.98 24.63,-11.01 3.43,0.52 6.73,1.68 9.73,3.44 -3.01,5.89 -4.57,12.42 -4.56,19.04l0 32 -78.7 0z"/>
    <path fill="black" fill-rule="nonzero" d="M429.93 176.98l0 -14.39c0,-18.65 -15.11,-33.76 -33.76,-33.76 -18.65,0 -33.76,15.11 -33.76,33.76l0 14.39c0,18.65 15.11,33.76 33.76,33.76 18.65,0 33.76,-15.11 33.76,-33.76zm-57.55 0l0 -14.39c0,-13.14 10.65,-23.79 23.79,-23.79 13.14,0 23.78,10.65 23.78,23.79l0 14.39c0,13.13 -10.64,23.79 -23.78,23.79 -13.14,0 -23.79,-10.66 -23.79,-23.79z"/>
    <path fill="black" fill-rule="nonzero" d="M237.49 176.98l0 -14.39c0,-18.65 -15.11,-33.76 -33.76,-33.76 -18.64,0 -33.76,15.11 -33.76,33.76l0 14.39c0,18.65 15.12,33.76 33.76,33.76 18.65,0 33.76,-15.11 33.76,-33.76zm-57.54 0l0 -14.39c0,-13.14 10.65,-23.79 23.78,-23.79 13.14,0 23.79,10.65 23.79,23.79l0 14.39c0,13.13 -10.65,23.79 -23.79,23.79 -13.13,0 -23.78,-10.66 -23.78,-23.79z"/>
   </g>
   <rect fill="none" width="599.91" height="599.91"/>
  </g>
 </g>
</svg>
