<?xml version="1.0" encoding="UTF-8"?>
<!DOCTYPE svg PUBLIC "-//W3C//DTD SVG 1.1//EN" "http://www.w3.org/Graphics/SVG/1.1/DTD/svg11.dtd">
<!-- Creator: CorelDRAW 2018 (64 Bit Versão de avaliação) -->
<svg xmlns="http://www.w3.org/2000/svg" xml:space="preserve" width="1000px" height="362px" version="1.1" shape-rendering="geometricPrecision" text-rendering="geometricPrecision" image-rendering="optimizeQuality" fill-rule="evenodd" clip-rule="evenodd"
viewBox="0 0 880.38 318.65"
 xmlns:xlink="http://www.w3.org/1999/xlink">
 <g id="Camada_x0020_1">
  <metadata id="CorelCorpID_0Corel-Layer"/>
  <g id="_2295486993040">
   <path fill="white" d="M27.82 257.62l3.59 10.35c0.76,1.9 1.44,3.1 2.16,4.89 0.95,2.36 1.92,3.1 2.3,4.75 -1.96,-1.32 -11.03,-11.85 -12.08,-13.93 -1.79,-1.81 -4.27,-5.84 -5.77,-8.16 -0.98,-1.51 -1.75,-2.81 -2.69,-4.36 -0.48,-0.8 -0.71,-1.31 -1.16,-2.2 -0.57,-1.14 -0.85,-1.36 -1.46,-2.55 -1.59,-3.77 -3.38,-7.28 -4.75,-11.39 -1.32,-3.97 -2.44,-8.59 -3,-13.44 -1.23,-10.69 0.34,-21.66 2.45,-30.18 3.71,-15.04 14.22,-31.29 25.83,-40.63 1.5,-1.21 2.76,-2.52 4.36,-3.7 14.54,-10.76 21.51,-14.66 39.45,-22.98l31.22 -14.43c1.99,-1 9.57,-4.86 10.52,-6.27 -4.68,-1.09 -9.45,-1.99 -14.13,-3 -2.9,-0.63 -2.53,-0.18 -4.45,0.87l-7.16 3.92c-1.69,0.94 -3.82,2.02 -5.62,2.77 -5.76,2.37 -11.88,5.67 -17.43,8.42l-5.45 2.94c-1.06,0.63 -1.83,0.98 -2.81,1.55 -0.86,0.49 -1.86,1.16 -2.72,1.65 -17.62,10.06 -34.1,23.69 -44.82,41.11 -6.72,10.9 -11.55,25.07 -13.18,38.52 -0.29,2.39 -0.74,5.25 -0.74,7.65 -0.01,8.93 -1.03,13.9 0.87,24.32 0.83,4.53 1.97,10.02 3.5,13.64 1.02,3.26 5.39,13.69 7.63,16.49 0.42,0.52 0.08,0.19 0.43,0.44 1.43,3.5 9.69,14.01 12.5,16.88l1.52 1.49c0.62,0.42 0.16,0.25 0.75,0.31 0.65,1.51 2.27,2.72 3.44,3.9l5.37 5.03c1.25,1.19 4.96,4.14 6.3,4.74 1.01,1.51 10.01,6.75 12.08,7.77 12.41,6.16 23.77,10.51 38.26,11.76 19.96,1.71 33.95,-0.62 51.03,-7.4 9.6,-3.81 11.66,-6.15 19.55,-10.74 1.5,-1.18 3,-2.17 4.54,-3.43 0.8,-0.65 1.41,-1.15 2.24,-1.79l4.47 -3.92c1.83,-1.85 5.33,-4.86 6.13,-6.5 0.68,-0.23 1.86,-1.78 2.4,-2.44 3.79,-4.71 13.22,-17.28 14,-21.87 1.53,-1.58 4.59,-10.43 5.21,-12.29 0.98,-2.94 3.56,-11.32 3.56,-14.14 0.65,-1.56 1.56,-9.49 1.68,-11.83 0.34,-6.36 0.19,-13.19 -0.61,-19.54 -2.13,-17.03 -8.56,-35.15 -19.14,-48.66 -1.03,-1.31 -2.17,-2.62 -3.07,-3.97 -2.45,1.63 -6.7,4.74 -9.4,5.37 0.32,1.21 3.88,5.51 4.89,6.85 9.39,12.5 14.93,26.54 16.53,42.21 0.6,5.86 0.81,17.27 -0.28,22.53 0,2.14 -0.67,5.15 -1.09,7.21 -1.07,5.37 -2.73,10.89 -4.8,16 -0.54,1.34 -1.05,1.9 -1.16,3.33 -0.75,0.65 -1.34,2.23 -1.79,3.13l-3.81 6.93c-3.21,5.39 -7.15,10.86 -11.52,15.16 -1.3,2.07 -7.26,7.25 -9.35,8.95 -0.93,0.76 -2.63,2.34 -3.74,2.64 2.29,-3.42 9.9,-13.32 10.74,-17.17 1.11,-0.71 3.84,-7.51 4.52,-9.2 3.3,-8.3 8.24,-24.07 8.24,-32.94 0.55,-1.04 0.19,-0.17 0.34,-1.45l0.67 -13.09c0,-3.61 0.2,-11.36 -0.67,-14.7 0,-5.59 -4.6,-27.21 -7.05,-30.99 -0.26,-2.97 -6.1,-14.23 -7.83,-17.31 -1.81,-3.24 -6.39,-10.23 -8.91,-13.25 -0.76,-0.91 -1.07,-0.76 -1.39,-1.96 1.29,0.86 2.51,1.65 3.74,2.64l3.65 3.06c2.06,-0.48 8.42,-3.7 9.39,-5.03l-3.49 -3.22c-4.7,-3.71 -7.18,-5.42 -12.22,-8.6l-8.78 -4.98c-0.79,-0.4 -1.53,-0.63 -2.36,-1 -12.99,-5.78 -19.76,-7.71 -35.13,-9.56 -1.67,-0.21 -2.06,0.44 -4.67,1.99 -3.05,1.8 -6.15,2.94 -9.21,4.56 0,23.22 -2.28,21.28 3.29,19.73l6.78 -1.94c0,-4.8 0.34,-8.55 0.34,-13.09 3.22,1.7 5.16,2.85 7.81,5.61l5.85 7.92c1.71,2.88 3.23,5.59 4.69,8.73 0.86,1.86 3.65,8.12 3.8,9.96 2.39,-0.05 7.52,-3.17 9.74,-3.36 -0.07,-3.17 -6.6,-16.36 -9,-20.21 -0.58,-0.94 -1.16,-1.74 -1.75,-2.61 1.95,0.52 9.71,6.29 11.34,7.8 0.89,0.82 1.44,1.58 2.38,2.32 4.61,3.66 12.29,14.44 14.7,18.86l6.5 12.94 2.39 7.04c0.76,2.28 1.53,4.99 2.18,7.56 0.84,3.4 2.81,13.11 2.81,16.39 0.05,1.94 0.62,4.94 0.68,6.97 0.08,2.51 -0.01,5.19 -0.01,7.73 0,3.27 -0.21,12.6 -1.01,14.54 0,7.58 -5.59,25.78 -9.05,32.8l-2.36 4.69c-0.47,0.9 -2.13,3.9 -2.35,4.65 -1.04,1.32 -1.82,2.79 -2.82,4.28l-9.34 11.8c-3.04,3 -12.19,11.27 -16.04,12.17 2.37,-3.54 4.2,-6.87 6.16,-10.96 2.37,-4.93 3.37,-9.1 4.92,-12.59 1.17,-4.69 2.68,-8.45 4.16,-14.92 0.64,-2.78 2.89,-13.88 2.89,-16.3 0.53,-3.18 1.24,-7.97 1.34,-11.36 0.13,-4.08 0.68,-7.71 0.68,-12.09 0,-2.83 0.15,-5.48 0.28,-7.77 0.07,-1.17 -0.29,-1.96 -0.3,-3.63 -0.02,-13.93 -1.32,-27.19 -3.98,-40.66 -0.4,-2.01 -1.33,-5.08 -1.38,-7.02 1.61,-0.13 10.62,-3.32 12.09,-4.02 -0.82,-1.55 -1.79,-2.82 -2.7,-4.35 -0.93,-1.55 -1.76,-2.66 -2.67,-4.38 -1.69,0.14 -8.8,2.69 -10.69,3.4 -3.37,1.27 -6.79,2.44 -10.32,3.79 -3.52,1.35 -16.97,6.5 -20.28,8.25 0,4.59 0.34,8.04 0.34,12.42 1.92,-1.02 3.64,-2.03 5.59,-3.13l12.44 -5.69c2.17,-0.94 4.47,-1.64 6.47,-2.59 0.04,1.66 0.86,4.28 1.2,6.18 1.45,8.08 1.61,12.32 2.69,19.8l0.81 29.43c0,4.27 -0.48,7.95 -0.68,12.05 -0.08,1.66 -0.44,4.11 -0.63,5.74 -0.24,2.05 -0.7,4.28 -0.7,6.32 -0.57,1.39 -1.25,6.76 -1.6,8.51 -0.62,3.11 -1.15,5.53 -1.9,8.51 -1.66,6.64 -4.15,12.88 -4.9,15.86 -0.65,1.35 -1.18,2.74 -1.82,4.27 -0.62,1.51 -1.26,2.61 -1.98,4.06 -3.22,6.44 -7.25,12.82 -13.12,17.09 -1.36,0.99 -2.47,1.4 -3.89,2.15l0 -28.09 0 -16.96 0 -17.79 0 -29.38 0 -64.2c-1.42,0.33 -9.94,2.35 -10.34,3.75l-0.06 62.8 0 29.04 0 15.87 0 18.88 0 26.76c-2.87,0 -3.5,-0.39 -5.38,-1.34 -3.74,-1.9 -7.11,-4.13 -10.3,-6.82l-5.33 -5.08c-3.25,-4.21 -5.32,-5.63 -9.06,-11.75 -3.24,-5.28 -6.99,-12.69 -8.73,-18.79 -2.01,-7.04 -3.75,-16.82 -2.16,-24.08 0,-9.05 5.54,-20.05 9.96,-27.58 0.62,-1.05 1.42,-2.23 2.13,-3.03 1.83,-3.14 7.17,-8.56 9.81,-11.22l3.61 -3.35c3.32,-2.81 10.24,-7.96 13.77,-9.82l0 -11.42c-2.08,0.18 -9.64,4.87 -11.32,6.14 -3.95,2.98 -6.05,4.28 -9.65,7.96 -10.37,10.02 -11.52,14.62 -13.83,17.12 -0.48,1.22 -0.97,2.02 -1.65,3.16 -2.61,4.36 -5.99,13.97 -7.2,18.99 -0.51,2.15 -1.62,6.72 -1.67,9.02 -0.24,3.01 -0.68,5.21 -0.67,8.78 0.02,18.49 4.41,33.69 14.16,48.94 0.59,0.93 1.7,2.15 1.95,3.09l-7.3 -5.45c-5.91,-5.54 -9.36,-8.6 -14.12,-15.77 -1.71,-2.59 -3.48,-5.07 -4.87,-7.88 -0.58,-1.18 -1.03,-1.74 -1.58,-2.78l-2.68 -5.9c-1.7,-4.11 -3.2,-8.6 -4.36,-13.24 -1.02,-4.08 -2.35,-10.41 -2.35,-15.34 -1.07,-5.27 0.07,-20.85 1.68,-24.29 0.49,-5.83 6.63,-16.27 10.51,-21.03 3.99,-4.91 9.14,-9.61 14.39,-13.13 0.92,-0.62 1.72,-0.94 2.29,-1.78l7.27 -4.1c16.88,-9.01 35.73,-15.67 54.11,-21.76 1.46,-0.48 3.09,-0.93 4.41,-1.63 -0.55,-2.39 -3.9,-6.92 -5.03,-9.06l-5 1.72c-1.64,0.54 -3.08,1.14 -4.95,1.76 -14.43,4.81 -22.59,8.37 -35.36,14.98 -7.63,3.95 -11.89,7.05 -18.38,11.85l-7.14 6.24c-3.6,2.67 -10.86,12.26 -12.9,15.67 -1.86,3.1 -3.52,6.04 -4.99,9.45 -0.99,2.3 -3.38,8.26 -3.59,10.82 -1,2.13 -1.95,8.31 -2.29,11.15 -0.52,4.26 -0.74,8.45 -0.74,13.14 0,5.23 0.35,10.45 0.99,15.02 0.34,2.41 0.69,4.49 1.17,6.89 0.5,2.5 1.1,4.38 1.54,6.67zm75.52 60.94c0.35,0.35 1.22,-0.48 0.39,-0.18 0,0 -0.95,-0.38 -0.39,0.18zm-67.47 -40.95c0.45,0 0.36,-0.11 0.29,0.33l-0.29 -0.33zm123.27 11.07c-0.1,-0.44 -0.19,-0.33 0.26,-0.33l-0.26 0.33zm1.27 -178.58c-1.63,2.44 -9.83,7.36 -10.74,8.73 1.7,0.4 8.33,4.45 10.07,5.37 8.82,-5.91 24.98,-25.67 11.56,-35.73 -5.17,-3.87 -9.89,-5.08 -16.22,-6.94l-9.44 -2.31 -2.13 4.31c5.42,0.14 19.74,5.17 24.07,7.32 9.47,4.7 -5.09,18.21 -6.5,18.58l1.75 -1.95c-1.21,-0.61 -5.17,-1.44 -6.76,-1.77l-21.03 -4.47c-15.03,-3.03 -43.19,-7.71 -56.16,-11.99 -13.88,-4.58 5.79,-13.42 8.02,-16.74 -2.9,-1.53 -5.48,-3.16 -8.4,-4.7 -3.77,3.28 -11.91,8.61 -12.73,15.14 -0.42,3.37 1.16,5.03 3.13,6.21 3.23,1.93 9.89,3.75 13.97,4.83 12.53,3.32 33.68,7.25 46.52,9.54l31.02 6.57zm12.42 4.03c2.01,0.17 7.12,2.51 8.73,3.35 2.94,1.53 6.04,3.47 6.04,7.06 0,7.88 -12.22,15.45 -18.99,18.27 -1.55,0.64 -2.09,1.13 -3.84,1.53 1.57,2.95 3.85,5.89 5.71,9.4 4.69,-2.48 10.14,-5.02 14.18,-8.64l4.91 -4.84c3.37,-4.18 6.76,-7.5 6.76,-14.72 0,-5.75 -4.2,-8.32 -8.17,-10.29 -3.49,-1.74 -9.58,-3.86 -13.65,-4.81 -0.39,1.69 -1.25,1.83 -1.68,3.69zm-50.02 -79.22c5.07,9.58 19.47,25.39 19.47,35.25 0,6.26 -7.5,11.74 -12.14,14.7 -2.85,1.82 -5.49,3.28 -8.4,5.04 -1.86,1.12 -7.96,4.14 -8.66,5.1l12.56 2.57c2.33,0.57 1.84,0.49 4.67,-1.8 7.17,-5.79 13.07,-12.27 15.87,-22.06 3.55,-12.46 -0.56,-25.75 -5.91,-36.45 -0.89,-1.79 -1.77,-3.34 -2.69,-5.03 -0.59,-1.1 -2.17,-4.08 -3.02,-4.7l-8.66 5.43c-1.11,0.75 -1.92,1.34 -3.09,1.95zm-61.09 -4.7c0,14.03 0.94,23.55 13.23,32.42 9.84,7.1 21.27,11.28 33.18,13.82l13.2 2.58c2.41,0.45 4.67,0.73 6.88,1.17 5.48,1.09 5.14,1.41 8.57,-1.11 0.88,-0.65 1.52,-1.12 1.81,-2.22l-14.68 -2.78c-12.97,-2.23 -30.93,-5.41 -40.38,-12.65 -3.72,-2.86 -5.54,-5.35 -7.72,-9.74 -7.44,-14.98 3.65,-41.8 3.7,-44.32 -2.58,-0.68 -10.94,-7.2 -13.09,-7.38 -0.1,1.18 -0.48,2.3 -0.76,3.61 -0.22,1.04 -0.51,2.22 -0.78,3.58 -1.46,7.4 -3.16,15.29 -3.16,23.02z"/>
   <g>
    <path fill="white" d="M588.18 205.95c-0.55,-2.36 -5.44,-10.94 -7.04,-14.86 -1.89,-4.68 -4.84,-9.9 -7.23,-14.68 -2.51,-5.03 -4.7,-9.89 -7.13,-14.76 -1.31,-2.62 -2.05,-4.79 -4.09,-6.86 -4.11,-4.17 -5.97,-3.6 -11.84,-3.6 -5.24,0 -9.96,3.92 -9.96,10.46l0 57.74c0,1.15 0.35,1.49 1.5,1.49l12.44 0 0 -53.26 3.65 6.8c1.32,2.63 2.34,4.68 3.65,7.3l14.77 29.04c3.41,6.83 4.42,11.12 12.28,11.12 6.64,0 8.97,-5.99 11.28,-10.62 1.64,-3.27 20.61,-41.96 22.07,-43.64l0 53.26 12.45 0c1.14,0 1.49,-0.34 1.49,-1.49l0 -55.25c0,-4.28 -0.61,-7.86 -2.86,-10.09 -4.1,-4.06 -13.12,-4.55 -17.68,-0.5 -2.75,2.43 -3,3.39 -4.68,6.77 -2.63,5.26 -5.08,10.15 -7.64,15.26 -1.37,2.75 -13.45,28.92 -15.43,30.37zm231.64 -38.26l22.33 0 0 -16.93 12.94 0c0,14.27 0,28.54 0,42.81 0,7.07 0.76,14.98 -2.06,19.34 -2.51,3.88 -8.59,6.54 -14.3,7.05 -9.95,0 -27.27,1.67 -35.85,-1.55 -6.75,-2.54 -8.05,-7.98 -8.02,-14.88 0.01,-4.98 0,-9.96 0,-14.93 0,-8.44 -1.08,-16.27 10.55,-19.82 4.1,-1.25 9.12,-1.09 14.41,-1.09zm19.66 9.2l-25.59 0c-4.1,0 -7.46,3.36 -7.46,7.46l0 19.37c0,4.11 3.36,7.47 7.46,7.47l20.69 0c4.11,0 7.47,-3.36 7.47,-7.47l0 -24.27c0,-1.41 -1.16,-2.56 -2.57,-2.56zm-516.62 -16.24l11.95 0 0 -9.46 -11.95 0 0 9.46zm545.58 0l11.94 0 0 -9.46 -11.94 0 0 9.46zm-0.5 59.74l12.44 0 0 -52.27 -12.44 0 0 52.27zm-545.57 0l12.44 0 0 -52.27 -12.44 0 0 52.27zm100.05 -35.35l0 33.85c0,2.57 4.92,1.5 11.95,1.5 2.27,0 1.51,-3.54 1.49,-5.98l0 -23.89c0,-5.82 -1.08,-10.22 2.84,-12.6 2.46,-1.49 3.75,-0.55 6.98,-0.98l11.09 -0.36 0 -9.46c-18.83,0 -34.35,-2.2 -34.35,17.92zm-35.91 -16.92l-22.33 0 0 -16.93 -12.94 0c0,14.27 0,28.54 0,42.81 0,7.07 -0.77,14.98 2.06,19.34 2.51,3.88 8.59,6.54 14.3,7.05 9.95,0 27.26,1.67 35.85,-1.55 6.74,-2.54 8.05,-7.98 8.02,-14.88 -0.02,-4.98 0,-9.96 0,-14.94 0,-8.43 1.08,-16.26 -10.55,-19.81 -4.1,-1.25 -9.12,-1.09 -14.41,-1.09zm-19.67 9.2l25.59 0c4.11,0 7.47,3.36 7.47,7.46l0 19.37c0,4.11 -3.36,7.47 -7.47,7.47l-20.69 0c-4.1,0 -7.46,-3.36 -7.46,-7.47l0 -24.27c0,-1.41 1.15,-2.56 2.56,-2.56zm284.06 28.13c0,9.36 7.5,14.94 16.93,14.94l25.39 0c9.11,0 16.92,-5.43 16.92,-14.44l0 -37.83 -12.44 0 0 32.85c0,9.95 -13.21,7.97 -22.9,7.97 -7.07,0 -11.45,-1.9 -11.45,-8.96l0 -31.86 -12.45 0 0 37.33zm71.19 -23.39l0 38.33 12.44 0 0 -33.36c0,-4.65 3.44,-7.46 7.97,-7.46 7.25,0 19.89,-1.27 23.78,2.1 1.52,1.31 2.1,3.66 2.1,6.36l0 32.36 12.45 0 0 -36.34c0,-6.31 -2.29,-10.56 -6.18,-13.24 -6.64,-4.58 -38.3,-4.36 -45.44,-0.55 -3.95,2.11 -7.12,6.01 -7.12,11.8zm-476.38 -18.42l0 56.75 13.94 0 0 -29.37 47.78 0 0 -10.46 -47.78 0c0,-22.78 -4.61,-18.91 47.78,-18.91l0 -10.46 -44.3 0c-4.71,0 -8.58,1.37 -11.56,3.37 -2.7,1.81 -5.86,4.8 -5.86,9.08zm224 13.44l37.28 -0.21c1.04,-0.01 2.08,-0.01 3.12,-0.01 3.56,0 6.47,2.91 6.47,6.47l0 1.5 -25.91 0c-0.45,0.04 -0.92,0.07 -1.42,0.09 -1.05,0.03 -2.09,0.07 -3.12,0.12 -18.61,0.93 -16.92,11.92 -16.92,22.4 0,8.65 8.43,12.95 16.43,12.95l27.38 0c7.3,0 15.43,-4.47 15.43,-11.45l0 -30.37c0,-3.75 -4.32,-7.7 -8.31,-9.11 -8.13,-2.87 -40.28,-1.84 -50.43,-1.84l0 9.46zm18.73 16.75l25.43 0c1.67,0 3.04,1.36 3.04,3.03l0 7.94c0,3.68 -3.01,6.69 -6.69,6.69l-21.78 0c-3.68,0 -6.69,-3.01 -6.69,-6.69l0 -4.28c0,-3.68 3.01,-6.69 6.69,-6.69z"/>
    <g>
     <path fill="white" d="M346.76 243.28l0 33.36c5.05,0 4.71,-0.01 9.33,0.01 9.06,0.05 7.59,-0.51 7.59,-19.93 0,-6.34 -3.65,-5.47 -9.45,-5.47 -1.54,0 -1.5,0.69 -1.5,1.99 0,3.63 6.47,-0.65 6.47,2.99l0 15.43c0,2.25 -2.55,1.49 -7.96,1.49l0 -31.36c-3.2,0 -4.48,-0.44 -4.48,1.49z"/>
     <path fill="white" d="M426.9 262.7c-3.56,-2.39 -11.95,-3.06 -11.95,3.98 0,10.5 -0.17,9.96 8.96,9.96 1.54,0 1.5,-0.69 1.5,-2 0,-3.59 -5.98,0.61 -5.98,-2.98 0,-7.94 -0.96,-6.97 7.47,-6.97 0,13.66 -1.24,11.95 4.48,11.95l0 -20.91c0,-5.75 -6.19,-4.48 -12.94,-4.48 -1.59,0 -2.77,2.31 -2.01,3.07 2.09,2.1 9.71,-1.82 10.48,1.9 0.17,0.81 -0.01,5.29 -0.01,6.48z"/>
     <path fill="white" d="M791.78 254.73c0.63,2.72 0.49,4.64 0.49,7.97 -4.15,-2.79 -11.94,-2.04 -11.94,2.98 0,11.5 -0.96,10.96 9.95,10.96 0.94,-3.93 1.25,-3.49 -5.47,-3.49 0,-10.17 -1.64,-8.46 7.46,-8.46 0,12.95 -0.92,11.95 2.99,11.95 1.15,0 1.49,-0.35 1.49,-1.5l0 -17.42c0,-7.92 -3.94,-6.47 -12.94,-6.47 -1.04,0 -1.95,0.89 -2.24,1.84 -0.83,2.77 5.17,1.64 10.21,1.64z"/>
     <path fill="white" d="M586.19 252.74l0 23.9 3.98 0c1.1,-4.69 0.5,-16.43 0.5,-21.91l7.47 0 0 20.41c0,2.19 4.48,2.19 4.48,0l0 -19.91c0,-4.99 -5.3,-3.98 -9.96,-3.98 -2.51,0 0.68,1.38 -2.46,0.44l-2.51 -0.44c-1.15,0 -1.5,0.34 -1.5,1.49z"/>
     <path fill="white" d="M654.39 257.72c0,20.94 -1.59,18.92 12.44,18.92 1.54,0 1.5,-0.69 1.5,-2 0,-1.92 -1.59,-1.55 -3.44,-1.53 -1.84,0.01 -3.68,0.04 -5.52,0.04 -0.88,-3.77 -0.88,-14.65 0,-18.42l5.97 0c0.76,3.27 0.76,5.19 0,8.46 -2.31,0 -4.98,-0.71 -4.98,1.5 0,2.94 9.46,3.74 9.46,-2.99 0,-11.42 0.69,-10.45 -10.95,-10.45 -3.71,0 -4.48,2.77 -4.48,6.47z"/>
     <path fill="white" d="M290.51 246.77l0 29.87c6.15,0 4.48,2.85 4.48,-21.91 5.56,0 5.97,0.53 5.97,-1.99 0,-2.08 -1.73,-1.49 -5.97,-1.49l0 -4.48c0,-3.98 7.96,1.27 7.96,-3.49 0,-2.29 -2.79,-1.49 -8.46,-1.49 -2.97,0 -3.98,2.01 -3.98,4.98z"/>
     <path fill="white" d="M452.29 256.23c0,9.4 -0.76,9.45 8.96,9.45 3.41,14.64 -8.96,2.79 -8.96,9.46 0,2.38 3.33,1.5 9.46,1.5 5.1,0 3.98,-5.63 3.98,-10.96 0,-1.34 -0.24,-1.37 -0.5,-2.49 -2.86,-1.37 -4.82,-0.99 -8.46,-0.99l0 -7.47 8.46 0c0,-4.33 1.03,-3.48 -8.96,-3.48 -2.97,0 -3.98,2.01 -3.98,4.98z"/>
     <path fill="white" d="M817.66 255.23c0,4.38 -0.36,5.78 0.5,9.46 2.81,1.35 4.49,0.99 8.46,0.99 0.21,2.45 0.2,5.03 0,7.47 -6.54,0 -8.96,-1.01 -8.96,1.99 0,2.38 3.33,1.5 9.46,1.5 4.93,0 3.98,-5.56 3.98,-10.46 0,-4.69 -4.35,-3.98 -8.96,-3.98 -0.74,-3.19 -0.74,-4.27 0,-7.47 6.29,0 8.46,0.98 8.46,-1.99 0,-2.34 -3.05,-1.49 -8.96,-1.49 -2.4,0 -3.98,1.57 -3.98,3.98z"/>
     <path fill="white" d="M525.96 254.23l0 8.96c0,4.46 8.96,0.5 8.96,3.99l0 5.97 -8.96 0 0 3.49c13.49,0 13.44,1.13 13.44,-9.46 0,-8.9 -9.46,-2.32 -9.46,-6.47l0 -4.48c0,-3.59 8.96,0.33 8.96,-2.49 0,-1.35 -0.24,-1.38 -0.49,-2.49 -4.25,0 -12.45,-1.05 -12.45,2.98z"/>
     <path fill="white" d="M691.72 245.77c0,5.81 0,11.62 0,17.42 0,13.24 -1.48,13.45 8.96,13.45 1.89,0 2.96,-3.49 0.5,-3.49l-4.98 0 0 -18.42c5.56,0 5.98,0.53 5.98,-1.99 0,-2.08 -1.73,-1.49 -5.98,-1.49 0,-3.7 1.25,-7.7 -4.48,-5.48z"/>
     <path fill="white" d="M624.02 248.26l0 21.9c0,7.42 3.26,6.48 8.96,6.48 1.59,0 2.78,-2.32 2.01,-3.08 -0.89,-0.89 -4.37,-0.41 -5.99,-0.41 -1.07,-4.58 -0.5,-13.31 -0.5,-18.42 8.26,0 6.29,0.28 5.98,-3.48l-5.98 0 0 -5.98c-2.52,0 -4.48,-0.56 -4.48,2.99z"/>
     <path fill="white" d="M747.97 255.23c0,24.1 -2.22,21.41 12.45,21.41 0.32,-3.95 2.61,-3.49 -7.97,-3.49l0 -18.42c10.58,0 8.29,0.46 7.97,-3.48 -5.49,0 -12.45,-1.42 -12.45,3.98z"/>
     <path fill="white" d="M385.09 252.74l0 23.9 3.98 0c1.09,-4.69 0.5,-16.43 0.5,-21.91 6.01,0 6.47,0.58 6.47,-1.99 0,-3.04 -5.68,-0.74 -6.64,-0.95 -1.7,-0.38 1.86,-0.54 -2.82,-0.54 -1.15,0 -1.49,0.34 -1.49,1.49z"/>
     <path fill="white" d="M722.09 252.74l0 23.9c6.29,0 4.48,3.13 4.48,-25.39 -3.21,0 -4.48,-0.44 -4.48,1.49z"/>
     <path fill="white" d="M320.87 252.74l0 23.9c6.29,0 4.48,3.13 4.48,-25.39 -3.2,0 -4.48,-0.44 -4.48,1.49z"/>
     <path fill="white" d="M560.31 252.74l0 23.9 3.98 0c1.11,-4.76 0.5,-18.2 0.5,-23.9 0,-2.19 -4.48,-2.19 -4.48,0z"/>
     <path fill="white" d="M662.85 249.26c1.4,0 4.84,-4.59 5.23,-5.25 0.82,-1.35 0.59,-0.6 0.25,-2.22l-3.99 0c-0.53,2.31 -4.74,7.47 -1.49,7.47z"/>
     <path fill="white" d="M559.81 246.27c0,2.44 0.21,4.51 4.98,1.99l0 -3.48c-3.57,0 -4.98,-0.49 -4.98,1.49z"/>
     <polygon fill="white" points="320.87,249.26 325.35,249.26 325.35,244.78 320.87,244.78 "/>
     <path fill="white" d="M722.09 249.26c2.52,0 2.56,-0.34 4.48,-0.5l0 -3.98 -4.48 0 0 4.48z"/>
    </g>
   </g>
  </g>
 </g>
</svg>
