<?xml version="1.0" encoding="UTF-8"?>
<!DOCTYPE svg PUBLIC "-//W3C//DTD SVG 1.1//EN" "http://www.w3.org/Graphics/SVG/1.1/DTD/svg11.dtd">
<!-- Creator: CorelDRAW 2018 (64 Bit Versão de avaliação) -->
<svg xmlns="http://www.w3.org/2000/svg" xml:space="preserve" width="300px" height="300px" version="1.1" shape-rendering="geometricPrecision" text-rendering="geometricPrecision" image-rendering="optimizeQuality" fill-rule="evenodd" clip-rule="evenodd"
viewBox="0 0 61.25 61.25"
 xmlns:xlink="http://www.w3.org/1999/xlink">
 <g id="Camada_x0020_1">
  <metadata id="CorelCorpID_0Corel-Layer"/>
  <g id="_2003070232352">
   <rect fill="none" width="61.25" height="61.25"/>
   <path fill="black" fill-rule="nonzero" d="M17.51 48.23l2.07 -3.38c0.18,-0.29 0.09,-0.66 -0.19,-0.83 -0.29,-0.18 -0.66,-0.09 -0.84,0.19l-2.47 4.02 -4.8 0c-0.01,0 -0.05,0 -0.07,-0.05 -0.03,-0.04 -0.01,-0.07 0,-0.08l8.68 -14.1c0,-0.01 0.02,-0.04 0.07,-0.04 0.04,0 0.06,0.03 0.07,0.04l2.4 3.91 -2.4 3.9c-0.18,0.29 -0.09,0.66 0.2,0.84 0.28,0.17 0.66,0.08 0.83,-0.2l9.5 -15.43c0,-0.01 0.02,-0.04 0.07,-0.04 0.04,0 0.06,0.03 0.07,0.04l13.05 21.21 -26.24 0zm13.72 -33.58c1.96,0.54 3.73,-0.11 5.44,-0.75 1.69,-0.63 3.29,-1.22 5.01,-0.61l0 5.88c-1.96,-0.54 -3.73,0.12 -5.44,0.75 -1.69,0.63 -3.29,1.22 -5.01,0.62l0 -5.89zm19.85 32.82l-8.68 -14.11c-0.24,-0.38 -0.65,-0.61 -1.1,-0.61 -0.45,0 -0.87,0.23 -1.1,0.61l-1.13 1.83c-0.18,0.29 -0.09,0.66 0.2,0.84 0.28,0.17 0.66,0.08 0.83,-0.2l1.13 -1.83c0,-0.01 0.02,-0.04 0.07,-0.04 0.04,0 0.06,0.03 0.07,0.04l8.68 14.1c0,0.01 0.02,0.04 0,0.08 -0.03,0.05 -0.06,0.05 -0.07,0.05l-4.81 0 -13.44 -21.85c-0.12,-0.2 -0.29,-0.35 -0.48,-0.46 0,0 0,0 0,0l0 -4.11c0.5,0.14 0.99,0.2 1.47,0.2 1.39,0 2.68,-0.48 3.95,-0.95 1.75,-0.65 3.41,-1.27 5.2,-0.55 0.23,0.09 0.49,0.06 0.7,-0.07 0.2,-0.14 0.33,-0.38 0.33,-0.63l0 -6.84c0,-0.3 -0.18,-0.57 -0.46,-0.69 -0.78,-0.33 -1.53,-0.46 -2.25,-0.46 -1.39,0 -2.68,0.48 -3.95,0.95 -1.8,0.67 -3.51,1.3 -5.37,0.47 -0.18,-0.08 -0.4,-0.07 -0.57,0.05 -0.17,0.11 -0.28,0.3 -0.28,0.5l0 0.03c-0.01,0.04 -0.01,0.09 -0.01,0.14l0 11.96c-0.2,0.11 -0.36,0.26 -0.48,0.46l-6.39 10.37 -2.08 -3.39c-0.24,-0.38 -0.65,-0.61 -1.1,-0.61 -0.46,0 -0.87,0.23 -1.11,0.61l-8.67 14.11c-0.25,0.39 -0.26,0.9 -0.03,1.3 0.23,0.41 0.66,0.67 1.13,0.67l38.7 0c0.46,0 0.9,-0.26 1.13,-0.67 0.22,-0.4 0.21,-0.91 -0.03,-1.3zm-1.1 1.97l0 0z"/>
  </g>
 </g>
</svg>
